<?xml version="1.0" standalone="no"?>
<!DOCTYPE svg PUBLIC "-//W3C//DTD SVG 1.1//EN" "http://www.w3.org/Graphics/SVG/1.1/DTD/svg11.dtd" >
<svg xmlns="http://www.w3.org/2000/svg" xmlns:xlink="http://www.w3.org/1999/xlink" version="1.1">
<metadata></metadata>
<defs>
<font id="permiansanstypefaceregular" horiz-adv-x="907" >
<font-face units-per-em="2048" ascent="1536" descent="-512" />
<missing-glyph horiz-adv-x="481" />
<glyph horiz-adv-x="0" />
<glyph horiz-adv-x="682" />
<glyph unicode=" "  horiz-adv-x="481" />
<glyph unicode="&#x09;" horiz-adv-x="481" />
<glyph unicode="&#xa0;" horiz-adv-x="481" />
<glyph unicode="!" horiz-adv-x="595" d="M160 98q0 59 40 93t105 34q61 0 96 -33t35 -90q0 -62 -39 -97.5t-104 -35.5q-59 0 -96 35.5t-37 93.5zM190 1436l213 10l-20 -975h-170z" />
<glyph unicode="&#x22;" horiz-adv-x="792" d="M125 1436l213 10l-31 -498h-149zM453 1436l213 10l-31 -498h-150z" />
<glyph unicode="#" horiz-adv-x="1517" d="M113 293v151h247l132 340h-297v152h354l106 276h168l-106 -276h325l107 276h168l-107 -276h189v-152h-246l-129 -340h293v-151h-352l-111 -293h-170l113 293h-326l-111 -293h-170l113 293h-190zM530 444h324l131 340h-326z" />
<glyph unicode="$" horiz-adv-x="1058" d="M98 981q0 141 100 245t283 128l-14 295q79 29 160 0l-17 -291q79 -4 155.5 -24t112.5 -38l37 -18l-59 -139q-147 61 -301 61q-120 0 -195 -54t-75 -145q0 -51 23.5 -91t63 -66.5t90.5 -48.5t107.5 -41.5t113 -41t107.5 -52t90.5 -69.5t63 -98.5t23.5 -134.5 q0 -151 -101 -250.5t-280 -125.5l18 -295q-76 -29 -160 0l13 284q-86 2 -174 22.5t-133 40.5l-46 19l58 144q169 -70 334 -70q128 0 206 55t78 152q0 54 -23.5 95t-63 67t-90.5 47t-107.5 39.5t-113 38.5t-107.5 50t-90.5 69.5t-63 101t-23.5 139.5z" />
<glyph unicode="%" horiz-adv-x="1933" d="M90 1059q0 186 102.5 294.5t299.5 108.5q86 0 156.5 -31t115 -82.5t68.5 -115t24 -131.5q0 -186 -102 -295t-299 -109q-114 0 -199 54t-125.5 134.5t-40.5 172.5zM279 1106q0 -56 10.5 -104t33 -88.5t62.5 -63.5t94 -23q86 0 136.5 66.5t50.5 161.5q0 74 -20 135 t-67.5 102t-115.5 41q-87 0 -135.5 -65.5t-48.5 -161.5zM377 0l979 1434h198l-976 -1434h-201zM1077 340q0 186 102.5 294.5t299.5 108.5q86 0 156.5 -31t115 -82.5t68.5 -115t24 -131.5q0 -186 -102 -294.5t-299 -108.5q-114 0 -199 53.5t-125.5 134t-40.5 172.5zM1266 387 q0 -56 10.5 -104t33 -88t62.5 -63t94 -23q86 0 136.5 66t50.5 161q0 74 -20 135t-67.5 102t-115.5 41q-87 0 -135.5 -65.5t-48.5 -161.5z" />
<glyph unicode="&#x26;" horiz-adv-x="1423" d="M119 307q0 59 16 112t39.5 92.5t63 81t72.5 69t83 63.5q-88 102 -137 185.5t-53 176.5q-10 173 95.5 274t272.5 101q178 0 270.5 -80t92.5 -215q0 -33 -4.5 -62.5t-19 -59.5t-25 -51.5t-38.5 -52.5t-43 -47.5t-55 -52t-58 -50t-68 -56.5l108 -125q167 -189 221 -245 q115 161 170 362l123 -35q-54 -231 -198 -420q162 -149 292 -149h37v-123h-82q-186 0 -362 143q-181 -163 -397 -163q-183 0 -299.5 92t-116.5 235zM313 352q0 -97 69 -161t196 -64q133 0 253 104q-41 41 -81 85.5t-103.5 120t-79.5 93.5l-102 113q-152 -121 -152 -291z M385 1114q2 -36 13 -72t23.5 -61t39 -60t41.5 -52t49 -54q101 87 150 162t49 166q0 93 -49.5 140.5t-139.5 47.5q-85 0 -133.5 -61.5t-42.5 -155.5z" />
<glyph unicode="'" horiz-adv-x="464" d="M125 1436l213 10l-31 -498h-149z" />
<glyph unicode="(" horiz-adv-x="696" d="M94 592q0 167 36.5 324t107.5 296.5t186.5 251.5t263.5 178l51 -129q-217 -112 -341 -358.5t-124 -542.5q0 -200 55.5 -386.5t162.5 -331t247 -209.5l-59 -115q-141 53 -253.5 158t-184.5 242t-110 296t-38 326z" />
<glyph unicode=")" horiz-adv-x="700" d="M-39 -301q217 112 341 358.5t124 542.5q0 200 -55.5 387t-162.5 331.5t-247 209.5l59 114q186 -70 321 -230t200 -363t65 -428q0 -167 -36.5 -324.5t-107.5 -297t-186.5 -251.5t-263.5 -178z" />
<glyph unicode="*" horiz-adv-x="1112" d="M92 1448q13 41 48.5 61.5t76.5 -0.5l266 -135l23 15l-45 299q-6 43 23.5 70.5t70.5 27.5q43 0 73 -27.5t23 -72.5l-45 -293l23 -19l266 135q41 21 76.5 0.5t48.5 -61.5q13 -40 -4 -76t-60 -43l-297 -51l-8 -27l209 -209q31 -37 23.5 -75t-43.5 -64q-30 -25 -70 -19.5 t-61 44.5l-140 264h-28l-138 -264q-21 -39 -61 -44.5t-70 19.5q-36 26 -43.5 64t23.5 75l209 211l-8 25l-297 51q-43 7 -60 43t-4 76z" />
<glyph unicode="+" horiz-adv-x="1062" d="M111 508v151h338v347h163v-347h340v-151h-340v-344h-163v344h-338z" />
<glyph unicode="," horiz-adv-x="536" d="M125 -317q130 120 141 290q-57 -2 -97 30.5t-40 94.5q0 59 38 93t97 34q69 0 105.5 -41.5t36.5 -120.5q0 -129 -51.5 -247t-147.5 -201z" />
<glyph unicode="-" d="M156 516v141l596 21v-141z" />
<glyph unicode="." horiz-adv-x="526" d="M131 98q0 60 37 93.5t102 33.5q61 0 93 -32.5t32 -90.5q0 -63 -36 -98t-101 -35q-58 0 -92.5 35t-34.5 94z" />
<glyph unicode="/" horiz-adv-x="993" d="M-98 -356l882 1790h168l-880 -1790h-170z" />
<glyph unicode="0" horiz-adv-x="1284" d="M135 674q0 237 57.5 410t178.5 271.5t295 98.5q114 0 207.5 -59t152.5 -157.5t91 -221.5t32 -256q0 -237 -57.5 -410t-178.5 -271.5t-295 -98.5q-114 0 -207.5 59t-152.5 157.5t-91 221.5t-32 256zM344 778q0 -132 16 -243t50.5 -204t96 -145.5t144.5 -52.5q88 0 155 73 t100.5 190.5t33.5 258.5q0 129 -18.5 242t-55 205t-98 145t-141.5 53q-91 0 -156.5 -73.5t-96 -189.5t-30.5 -259z" />
<glyph unicode="1" horiz-adv-x="796" d="M51 1331l502 115h33v-1446h-201v1239l-324 -29z" />
<glyph unicode="2" horiz-adv-x="1028" d="M59 0v102l275 301q171 189 248 335.5t77 297.5q0 250 -239 250q-72 0 -150 -18t-120 -36l-41 -18v168q15 8 43.5 20t118 32t182.5 20q189 0 298 -99t109 -304q0 -176 -105 -355t-311 -393l-147 -153l473 6q38 1 76 3.5t57 4.5l19 2l-17 -166h-846z" />
<glyph unicode="3" horiz-adv-x="1083" d="M90 39l41 164q17 -6 46 -15.5t113.5 -25t160.5 -15.5q141 0 221 67.5t80 186.5q0 55 -22 104t-65.5 89.5t-118 64t-171.5 23.5h-56l11 152h47q153 0 237 72t84 192q0 86 -60 137t-171 51q-78 0 -157.5 -18t-119.5 -36l-40 -18v168q15 8 43.5 20t116 32t175.5 20 q193 0 301.5 -87t108.5 -243q0 -120 -74.5 -215t-220.5 -135q164 -28 260 -126.5t96 -246.5q0 -182 -132 -301.5t-371 -119.5q-88 0 -178.5 15t-137.5 29z" />
<glyph unicode="4" horiz-adv-x="1202" d="M37 399l754 1063h106v-1003l233 2l-16 -156h-217v-135q0 -42 2.5 -89.5t4.5 -74.5l3 -26h-202v325h-611zM254 449l451 8v483q0 43 3.5 91t7.5 75l3 27h-6q-37 -95 -103 -187z" />
<glyph unicode="5" horiz-adv-x="1081" d="M94 39l41 162q194 -54 322 -54q152 0 225.5 72.5t73.5 200.5q0 143 -147.5 229t-424.5 111l37 674h703l-11 -183l-546 15l-21 -344q165 -22 285.5 -68.5t191.5 -113t104.5 -146t33.5 -174.5q0 -92 -31 -171t-91 -139.5t-156 -95t-218 -34.5q-196 0 -371 59z" />
<glyph unicode="6" horiz-adv-x="1157" d="M123 629q0 165 39.5 298.5t109.5 227t173 161t223 105.5t266 56l20 -156q-276 -38 -430.5 -162.5t-191.5 -361.5q42 31 116.5 58.5t169.5 27.5q206 0 318.5 -111t112.5 -313q0 -99 -29 -184t-85 -151.5t-146 -105t-205 -38.5q-210 0 -328 157q-133 177 -133 492zM324 631 q-3 -99 11 -185.5t46.5 -158.5t91.5 -114t139 -42q120 0 179 81.5t59 223.5q0 285 -277 285q-140 0 -249 -90z" />
<glyph unicode="7" horiz-adv-x="962" d="M72 1251l16 183h844v-35q-269 -577 -537 -1426l-205 60q180 487 545 1243l-465 -10q-48 -1 -97.5 -4.5t-74.5 -7.5z" />
<glyph unicode="8" horiz-adv-x="1173" d="M133 356q0 71 25.5 136.5t68 114t92 84.5t103.5 59q-119 72 -184.5 151.5t-65.5 194.5q0 163 121.5 260.5t306.5 97.5q177 0 290.5 -89.5t110.5 -238.5q-1 -63 -27 -120.5t-67.5 -100.5t-83.5 -73.5t-88 -53.5q54 -30 93 -55.5t82.5 -63t70 -76t44 -91t17.5 -111.5 q0 -117 -63 -211t-166 -143.5t-223 -49.5q-207 0 -332 100t-125 279zM328 369q0 -103 66 -169.5t190 -66.5q115 0 190.5 60.5t75.5 168.5q0 33 -10.5 63.5t-23 53.5t-41.5 50t-47.5 42.5t-61.5 41.5t-62 37t-69 38q-84 -53 -145.5 -136t-61.5 -183zM367 1118 q0 -39 14.5 -73.5t35.5 -60.5t58 -54.5t68.5 -47.5t81.5 -46q90 63 135.5 124t46.5 148q2 87 -54.5 138.5t-160.5 51.5q-101 0 -163 -49t-62 -131z" />
<glyph unicode="9" horiz-adv-x="1157" d="M106 975q0 99 29 184t85 151.5t146 105t205 38.5q209 0 328 -158q133 -177 133 -491q0 -165 -39.5 -298.5t-109.5 -227t-173 -161t-223 -105.5t-266 -56l-20 156q276 36 430.5 161t191.5 363q-134 -86 -319 -86q-107 0 -196.5 49t-145.5 147.5t-56 227.5zM305 997 q0 -130 70.5 -207t206.5 -77q138 0 247 90q3 98 -11 184.5t-46.5 158.5t-91 114.5t-137.5 42.5q-120 0 -179 -81.5t-59 -224.5z" />
<glyph unicode=":" horiz-adv-x="575" d="M156 98q0 60 37 93.5t102 33.5q61 0 93 -32.5t32 -90.5q0 -63 -36 -98t-101 -35q-58 0 -92.5 35t-34.5 94zM156 817q0 60 37 93.5t102 33.5q61 0 93 -32.5t32 -90.5q0 -63 -36 -98t-101 -35q-58 0 -92.5 35t-34.5 94z" />
<glyph unicode=";" horiz-adv-x="591" d="M156 -317q130 120 141 290q-57 -2 -97 30.5t-40 94.5q0 59 38 93t97 34q69 0 105 -41.5t36 -120.5q0 -129 -51 -247t-147 -201zM160 819q0 60 37 93.5t102 33.5q61 0 93 -32.5t32 -90.5q0 -63 -36 -98t-101 -35q-58 0 -92.5 35t-34.5 94z" />
<glyph unicode="&#x3c;" horiz-adv-x="964" d="M86 553v59l713 430v-198l-459 -260l459 -265v-196z" />
<glyph unicode="=" horiz-adv-x="1181" d="M170 311v152h842v-152h-842zM170 700v152h842v-152h-842z" />
<glyph unicode="&#x3e;" horiz-adv-x="964" d="M166 123v196l459 265l-459 260v198l713 -430v-59z" />
<glyph unicode="?" horiz-adv-x="917" d="M98 1202v162q4 4 12.5 10.5t38.5 23.5t65 30t92.5 23.5t119.5 10.5q107 0 187.5 -27.5t125 -73.5t65.5 -98t21 -110q0 -60 -21.5 -115.5t-56 -97.5t-76 -79.5t-83.5 -69.5t-76.5 -60.5t-56 -58t-21.5 -56.5q0 -19 13 -36t32 -17q24 0 53 25l86 -109q-90 -78 -182 -78 q-79 0 -135.5 52.5t-56.5 134.5q0 53 21 101t54 84t73 70t80.5 66.5t73.5 66.5t54 77.5t21 91.5q0 71 -60 113t-166 42q-50 0 -99 -10t-83 -24.5t-61 -29t-40 -24.5zM276 98q0 59 40 93t106 34q61 0 96 -33t35 -90q0 -62 -39 -97.5t-104 -35.5q-59 0 -96.5 35.5t-37.5 93.5z " />
<glyph unicode="@" horiz-adv-x="1896" d="M100 408q0 146 34.5 274.5t107 237t177 187t253 122t327.5 43.5q125 0 238 -29t209 -89.5t166.5 -146.5t110.5 -206t40 -262q0 -139 -48 -266.5t-137 -210t-196 -82.5q-154 0 -217 129q-4 -5 -12 -14t-35 -31t-57 -39t-77.5 -31t-96.5 -14q-169 0 -275 121t-106 307 q0 210 119 341.5t301 131.5q68 0 126.5 -19t83.5 -38l25 -19l148 86h22v-672q0 -40 17 -64t51 -24q53 0 91 58t54.5 140t16.5 173q0 289 -164.5 458.5t-454.5 169.5q-128 0 -234.5 -37t-180 -100.5t-125 -150t-75.5 -184.5t-24 -205q0 -123 30.5 -232.5t92.5 -197.5 t149.5 -147.5t207 -84t259.5 -6.5l17 -135q-211 -31 -390 10t-304 141t-195 256.5t-70 350.5zM705 438q0 -143 59 -226t178 -83q56 0 106 19t72 38l23 19l-2 485q-9 5 -25 12.5t-65.5 20t-98.5 12.5q-126 0 -186.5 -81.5t-60.5 -215.5z" />
<glyph unicode="A" horiz-adv-x="1273" d="M53 0q8 58 24 121.5t31 109t46 131.5l385 1065l182 13l442 -1194q24 -68 49.5 -128.5t38.5 -87.5l13 -26l-211 -12l-135 368h-590l-17 -51q-63 -188 -80 -309h-178zM377 506h487l-186 514q-16 45 -32 97.5t-24 82.5l-8 29h-8q-22 -111 -55 -207z" />
<glyph unicode="B" horiz-adv-x="1259" d="M199 1434h430q223 0 335.5 -98t112.5 -263q0 -107 -56 -191.5t-144 -125.5v-4q123 -33 192.5 -125t69.5 -207q0 -201 -137 -310.5t-371 -109.5h-420v1225q0 46 -3 98.5t-6 81.5zM408 145h239q130 0 209.5 71.5t79.5 199.5q0 119 -77 190.5t-210 71.5h-241v-533zM408 825 h340q5 3 13.5 8.5t30.5 26.5t38.5 45t30 64.5t13.5 85.5q0 233 -268 233h-198v-463z" />
<glyph unicode="C" horiz-adv-x="1216" d="M127 674q0 236 72.5 411t221 275t359.5 100q57 0 116.5 -7t125 -18.5t100.5 -15.5l-28 -159q-3 0 -136 20t-210 20q-122 0 -217 -74t-145 -200t-50 -281q0 -96 15 -181.5t50.5 -163.5t88.5 -134.5t135 -89.5t184 -33q82 0 154 9.5t103 19.5l32 10l35 -143 q-12 -7 -36 -16.5t-111.5 -26t-190.5 -16.5q-305 0 -486.5 193t-181.5 501z" />
<glyph unicode="D" horiz-adv-x="1480" d="M199 1434h403q367 0 565.5 -183.5t198.5 -507.5q0 -184 -60 -328t-165.5 -233.5t-242.5 -135.5t-298 -46h-389v1225q0 46 -3 98.5t-6 81.5zM412 147h235q234 0 369 151.5t135 410.5q0 275 -156 426t-436 151h-147v-1139z" />
<glyph unicode="E" horiz-adv-x="1208" d="M199 1434h886l-10 -162q-100 10 -198 12l-465 6v-491l571 10l-10 -176l-561 16v-504l512 7q46 1 86.5 4t57.5 6l17 2l-10 -164h-864v1225q0 46 -3 98.5t-6 81.5z" />
<glyph unicode="F" horiz-adv-x="1138" d="M199 1434h866l-10 -164q-88 10 -197 12l-446 6v-530l551 10l-11 -176l-540 16v-418q0 -42 2.5 -89.5t5.5 -74.5l2 -26h-211v1225q0 46 -3 98.5t-6 81.5z" />
<glyph unicode="G" horiz-adv-x="1370" d="M125 674q0 177 45 320t133 247.5t226 161.5t317 57q66 0 132 -7t138 -18.5t103 -15.5l-29 -159q-30 3 -99.5 14t-136 18.5t-125.5 7.5q-232 0 -363.5 -148.5t-131.5 -406.5q0 -96 15.5 -182t51.5 -165t90 -136t137 -91t187 -34q50 0 103.5 4.5t81.5 8.5l28 4v274 q0 46 -3 99t-6 83l-3 29l203 10v-618q-18 -6 -50.5 -14.5t-138 -22.5t-215.5 -14q-169 0 -301 51t-216.5 144t-128.5 219t-44 280z" />
<glyph unicode="H" horiz-adv-x="1548" d="M199 1436l213 10v-629h725v408q0 46 -3.5 99t-6.5 82l-3 30l213 10v-1256q0 -42 2.5 -89.5t5.5 -74.5l3 -26h-211v666h-725v-476q0 -42 2.5 -89.5t5.5 -74.5l2 -26h-211v1225q0 46 -3 99t-6 82z" />
<glyph unicode="I" horiz-adv-x="622" d="M199 1436l213 10v-1256q0 -42 2.5 -89.5t5.5 -74.5l2 -26h-211v1225q0 46 -3 99t-6 82z" />
<glyph unicode="J" horiz-adv-x="620" d="M-18 -328q22 31 77.5 97.5t85 113.5t45.5 103q21 79 21 198v1041q0 46 -3 99t-6 82l-3 30l213 10v-1260q0 -126 -37 -233q-24 -68 -65.5 -129.5t-114 -144.5t-91.5 -107z" />
<glyph unicode="K" horiz-adv-x="1286" d="M199 1436l213 10v-637h143q208 268 290 387t148 238h209q-76 -134 -176.5 -275t-320.5 -411l450 -605q23 -30 54 -66t51 -57l20 -20l-244 -10l-497 669h-127v-469q0 -42 2.5 -89.5t5.5 -74.5l2 -26h-211v1225q0 46 -3 99t-6 82z" />
<glyph unicode="L" horiz-adv-x="1114" d="M199 1434l213 10v-1299l501 9q45 1 88 3.5t63 4.5l21 2l-10 -164h-864v1225q0 46 -3 98.5t-6 81.5z" />
<glyph unicode="M" horiz-adv-x="1855" d="M199 1436l184 10l455 -686l82 -137h6q43 82 82 141l440 672l197 10v-1256q0 -42 2.5 -89.5t4.5 -74.5l3 -26h-207v999q0 47 2.5 91.5t5.5 65.5l2 20l-8 2q-41 -88 -92 -164l-434 -666h-29l-426 641q-23 33 -45 71t-32 60l-11 21l-6 -2q8 -85 8 -185v-784q0 -33 2.5 -75.5 t4.5 -68.5l3 -26h-182v1202q0 46 -3 104.5t-6 93.5z" />
<glyph unicode="N" horiz-adv-x="1533" d="M199 1436l180 10l690 -1022q20 -29 43 -69.5t36 -66.5l13 -26l6 2q-16 107 -16 189v772q0 46 -3 99t-6 82l-3 30l186 10v-1446l-168 -20l-692 1021q-14 20 -36.5 59.5t-38.5 69.5l-15 29h-6q16 -125 16 -178v-791q0 -42 2.5 -89.5t4.5 -74.5l3 -26h-184v1225q0 46 -3 99 t-6 82z" />
<glyph unicode="O" horiz-adv-x="1538" d="M129 690q0 172 40 310t119.5 240.5t207.5 158t297 55.5q122 0 224 -39t173.5 -106t121.5 -158t73.5 -194t23.5 -214q0 -172 -40 -310t-119.5 -240t-207.5 -157.5t-297 -55.5q-122 0 -224 39t-173.5 106t-121.5 157.5t-73.5 193.5t-23.5 214zM338 741q0 -94 13.5 -179 t46 -166.5t82.5 -141t128.5 -95.5t177.5 -36q85 0 154 29t117 80.5t80.5 123.5t47.5 156t15 180q0 94 -13.5 179t-46 167t-82.5 141t-128.5 95.5t-177.5 36.5q-105 0 -186 -44.5t-130 -123t-73.5 -180t-24.5 -222.5z" />
<glyph unicode="P" horiz-adv-x="1224" d="M199 1434h401q262 0 400.5 -123t138.5 -342q0 -95 -38 -180t-105 -147.5t-164.5 -99t-210.5 -36.5h-209v-316q0 -42 2.5 -89.5t5.5 -74.5l2 -26h-211v1225q0 46 -3 98.5t-6 81.5zM412 655h209q146 0 229.5 87t83.5 225q0 66 -21 122.5t-63.5 101t-113.5 70t-165 25.5 h-159v-631z" />
<glyph unicode="Q" horiz-adv-x="1572" d="M125 690q0 171 43 310t126.5 241t214.5 157.5t300 55.5q152 0 275 -59.5t201 -159.5t119.5 -226.5t41.5 -265.5q0 -234 -80 -407t-236 -266l177 -289q22 -36 48.5 -75t42.5 -60l15 -21l-231 -10l-224 385q-102 -20 -196 -20q-152 0 -275 59.5t-201 159t-119.5 226 t-41.5 265.5zM334 741q0 -92 15.5 -178t51.5 -166.5t89 -140t133.5 -95.5t179.5 -36q106 0 189.5 44t136.5 121.5t80.5 179.5t27.5 222q0 92 -15.5 178.5t-51.5 167t-89 140t-133.5 95.5t-179.5 36q-106 0 -189.5 -44t-136.5 -122t-80.5 -180t-27.5 -222z" />
<glyph unicode="R" horiz-adv-x="1300" d="M199 1434h401q260 0 399.5 -115t139.5 -309q0 -151 -78 -249.5t-205 -135.5l274 -469q22 -36 48.5 -75t42.5 -60l16 -21l-231 -10l-328 579h-266v-379q0 -42 2.5 -89.5t5.5 -74.5l2 -26h-211v1225q0 46 -3 98.5t-6 81.5zM412 713h209q147 0 230 78t83 208 q0 135 -88.5 211t-274.5 76h-159v-573z" />
<glyph unicode="S" horiz-adv-x="1136" d="M131 1067q0 176 131.5 284.5t353.5 108.5q84 0 205 -18.5t164 -22.5l-29 -164q-49 3 -165.5 22t-198.5 19q-124 0 -193 -54.5t-69 -147.5q0 -104 69 -167t217 -120q58 -22 95 -37t85 -39t77.5 -45.5t62 -53t50 -65.5t29 -79.5t11.5 -98.5q0 -193 -143.5 -301t-403.5 -108 q-101 0 -187.5 12.5t-122.5 25.5l-36 13v157q17 -5 47 -13t120.5 -21t178.5 -13q163 0 255.5 57.5t92.5 170.5q0 39 -10.5 71.5t-34.5 59.5t-50 47.5t-70 41t-80.5 35t-94.5 35.5q-81 28 -141 61.5t-111 81.5t-77.5 114.5t-26.5 150.5z" />
<glyph unicode="T" horiz-adv-x="1198" d="M43 1270l6 164h1110l-8 -166q-82 10 -164 12l-285 8v-1098q0 -42 3 -89.5t5 -74.5l3 -26h-211v1288l-297 -8q-43 -1 -83.5 -3.5t-59.5 -4.5z" />
<glyph unicode="U" horiz-adv-x="1505" d="M182 1436l213 10v-932q0 -176 94.5 -282.5t278.5 -106.5q175 0 268.5 107t93.5 282v711q0 46 -3 99t-6 82l-3 30l193 10v-932q0 -115 -35.5 -212t-104.5 -172t-180 -117t-254 -42q-258 0 -400 146.5t-142 398.5v709q0 46 -3.5 99t-6.5 82z" />
<glyph unicode="V" horiz-adv-x="1277" d="M12 1425l211 13l375 -1028q19 -53 35 -108.5t23 -84.5l6 -29h8q16 105 55 220l240 712q60 179 79 314h179q-17 -133 -101 -367l-385 -1065l-182 -12l-442 1194q-24 68 -49.5 128t-38.5 86z" />
<glyph unicode="W" horiz-adv-x="1937" d="M37 1427l215 13l258 -916q16 -60 34 -137.5t28 -124.5l10 -47h8q30 176 63 311l221 908l193 10l238 -914q19 -74 35.5 -152t23.5 -120l6 -41h8q27 143 76 313l162 547q21 71 35 137.5t19 106.5t13 113h195q-30 -215 -109 -453l-311 -977l-203 -12l-237 911 q-16 59 -29.5 127t-19.5 106l-6 38h-7q-18 -132 -51 -269l-219 -901l-219 -12l-350 1194q-20 68 -40 128.5t-30 86.5z" />
<glyph unicode="X" horiz-adv-x="1294" d="M47 0q84 164 238 375l256 348l-328 494q-37 57 -74.5 111.5t-56.5 79.5l-19 26l250 10l363 -588l188 299q48 76 86.5 146t53.5 101l14 32h209q-62 -141 -207 -344l-260 -363l350 -530l135 -197l-237 -10l-383 604l-183 -283q-52 -81 -97 -158.5t-64 -114.5l-19 -38h-215z " />
<glyph unicode="Y" horiz-adv-x="1185" d="M-8 1434l229 10l397 -725l244 471q36 68 63 129t37 88l9 27h198q-44 -131 -163 -324l-314 -539v-381q0 -42 2.5 -89.5t5.5 -74.5l2 -26h-210v569l-381 676q-24 42 -54 89t-47 74z" />
<glyph unicode="Z" horiz-adv-x="1173" d="M80 0v20l713 1266l-467 -6l-217 -8l10 162h962v-21l-714 -1266l507 7l199 10l-10 -164h-983z" />
<glyph unicode="[" horiz-adv-x="626" d="M184 -408v2016h365v-105h-205v-1806h205v-105h-365z" />
<glyph unicode="\" horiz-adv-x="993" d="M41 1434h168l883 -1790h-170z" />
<glyph unicode="]" horiz-adv-x="626" d="M78 -303h205v1806h-205v105h364v-2016h-364v105z" />
<glyph unicode="^" horiz-adv-x="956" d="M0 1092l449 464h59l448 -464h-213l-266 299l-266 -299h-211z" />
<glyph unicode="_" horiz-adv-x="1030" d="M43 -203h944v-151h-944v151z" />
<glyph unicode="`" horiz-adv-x="1126" d="M88 1524l137 141l328 -371l-82 -86z" />
<glyph unicode="a" horiz-adv-x="1101" d="M98 250q0 121 84 205.5t246 109.5q119 19 279 19v63q0 130 -54.5 182t-175.5 52q-83 0 -159.5 -16.5t-111.5 -32.5l-36 -17v154q5 3 15.5 8t46 18t75 23t101.5 18t127 8q362 0 362 -356v-12q-1 -39 -3 -145.5t-3.5 -197t-1.5 -145.5q0 -49 43 -49q19 0 43.5 10.5 t39.5 20.5l15 10v-141q-7 -7 -20 -16.5t-53.5 -26t-82.5 -16.5q-134 0 -165 126q-142 -126 -324 -126q-142 0 -214.5 78t-72.5 192zM291 272q0 -60 40.5 -98.5t112.5 -38.5q127 0 254 82q0 88 4 260q-155 -12 -229 -31q-99 -25 -140.5 -67.5t-41.5 -106.5z" />
<glyph unicode="b" horiz-adv-x="1220" d="M160 1536l202 10l-4 -606q136 104 322 104q105 0 187.5 -39t133.5 -105.5t77 -151t26 -181.5q0 -274 -141 -430.5t-377 -156.5q-253 0 -414 81v1264q0 46 -3 99t-6 82zM358 813q4 -78 4 -197v-442q96 -51 222 -51q321 0 321 401q0 168 -72 262.5t-215 94.5 q-147 0 -260 -68z" />
<glyph unicode="c" horiz-adv-x="991" d="M115 479q0 247 137.5 406t341.5 159q61 0 153.5 -18.5t137.5 -21.5l-17 -168q-48 4 -140 25.5t-140 21.5q-139 0 -209 -94.5t-70 -260.5q0 -169 83 -277t235 -108q68 0 133 14t96 28l31 14v-152q-12 -8 -35 -19t-98 -29.5t-156 -18.5q-233 0 -358 137t-125 362z" />
<glyph unicode="d" horiz-adv-x="1222" d="M115 473q0 261 138 416t359 155q143 0 242 -67v348q0 52 -3.5 105t-6.5 80l-4 26l202 10v-1333q0 -46 3 -99t7 -82l3 -30l-185 -10l-6 94q-121 -106 -297 -106q-143 0 -247 68t-154.5 178t-50.5 247zM313 520q0 -171 81.5 -279t228.5 -108q129 0 231 60v626 q-88 84 -229 84q-147 0 -229.5 -108.5t-82.5 -274.5z" />
<glyph unicode="e" horiz-adv-x="1132" d="M115 475q0 268 137 418.5t356 150.5q157 0 258 -72q102 -72 138 -192q23 -76 24 -166q0 -52 -8 -108h-711q19 -363 365 -363q63 0 134 14t110 28l40 14v-150q-5 -3 -15.5 -7.5t-44.5 -16.5t-71.5 -21t-96 -16.5t-118.5 -7.5q-236 0 -366.5 134t-130.5 361zM315 637l510 8 v11q-1 106 -53 176q-56 74 -172 73q-115 0 -189.5 -73t-95.5 -195z" />
<glyph unicode="f" horiz-adv-x="804" d="M88 885v139h137v96q0 208 96.5 322t274.5 114q62 0 153.5 -18.5t137.5 -21.5l-17 -168q-56 5 -144.5 26t-135.5 21q-52 0 -88 -17.5t-54.5 -50.5t-26 -71t-7.5 -87v-145h350l-10 -150l-340 5v-689q0 -42 2.5 -89.5t5.5 -74.5l2 -26h-201v883z" />
<glyph unicode="g" horiz-adv-x="1165" d="M98 -223q0 169 170 256q-41 44 -41 114q0 100 92 183q-94 41 -146 123.5t-52 189.5q0 177 117.5 289t318.5 112q121 0 209 -43l346 27l-6 -133h-221v-6q94 -69 94 -213q0 -73 -30.5 -142t-86.5 -124t-143.5 -88t-192.5 -33q-66 0 -110 10q-33 -48 -33 -89v-7 q2 -28 26 -45.5t66 -20.5l227 -12q175 -9 265 -84t90 -215q0 -158 -133.5 -252.5t-350.5 -97.5h-22q-89 0 -164 14q-84 17 -150 52.5t-102.5 95t-36.5 139.5zM279 -172q0 -101 81 -157t240 -56q138 0 216.5 45.5t78.5 140.5q0 72 -47 107t-143 41l-248 14q-49 2 -111 21 q-67 -76 -67 -156zM315 672q0 -114 62 -179t184 -65q102 0 162.5 65.5t60.5 172.5q0 239 -245 239q-107 0 -165.5 -65t-58.5 -168z" />
<glyph unicode="h" horiz-adv-x="1191" d="M166 1536l203 10l-4 -624q148 122 356 122q157 0 229 -91t72 -253v-530q0 -33 2.5 -75.5t5.5 -68.5l2 -26h-201v649q0 115 -48.5 173.5t-157.5 58.5q-127 0 -260 -70q4 -40 4 -195v-446q0 -33 2.5 -75.5t4.5 -68.5l3 -26h-201v1325q0 46 -3 99t-6 82z" />
<glyph unicode="i" horiz-adv-x="550" d="M150 1366q0 53 36.5 84t94.5 31q55 0 86.5 -30t31.5 -81q0 -56 -35 -88.5t-94 -32.5q-53 0 -86.5 32.5t-33.5 84.5zM168 1024l203 10v-844q0 -42 2.5 -89.5t4.5 -74.5l3 -26h-201v813q0 46 -3 99t-6 82z" />
<glyph unicode="j" horiz-adv-x="548" d="M-25 -436q15 19 46.5 56.5t44 53.5t32 43.5t31.5 52t23 54.5q28 83 28 229v760q0 46 -3 99t-6 82l-3 30l203 10v-981q0 -141 -43 -243q-28 -66 -83.5 -138.5t-164.5 -197.5zM150 1366q0 53 36.5 84t94.5 31q55 0 86.5 -30t31.5 -81q0 -56 -35 -88.5t-94 -32.5 q-53 0 -86.5 32.5t-33.5 84.5z" />
<glyph unicode="k" horiz-adv-x="1077" d="M166 1538l203 10v-958h106l160 198q58 72 100 134t55 88l13 26l188 -12q-7 -14 -22 -40.5t-70 -104.5t-119 -154l-164 -190l295 -383l133 -152l-223 -10l-358 459h-94v-259q0 -42 2.5 -89.5t4.5 -74.5l3 -26h-201v1327q0 46 -3 99t-6 82z" />
<glyph unicode="l" horiz-adv-x="573" d="M178 1538l203 10v-1358q0 -42 2.5 -89.5t4.5 -74.5l3 -26h-201v1327q0 46 -3 99t-6 82z" />
<glyph unicode="m" horiz-adv-x="1792" d="M168 1024l188 10l6 -112q149 122 345 122q97 0 155 -35.5t92 -105.5q74 64 169 102.5t200 38.5q153 0 226 -92t73 -252v-530q0 -33 2.5 -75.5t5.5 -68.5l2 -26h-200v649q0 232 -205 232q-69 0 -125 -18t-121 -52q10 -58 10 -111v-530q0 -33 2.5 -75.5t4.5 -68.5l3 -26 h-200v649q0 116 -44 174t-147 58q-70 0 -124.5 -17.5t-118.5 -52.5q4 -40 4 -195v-446q0 -33 2.5 -75.5t4.5 -68.5l3 -26h-201v813q0 46 -3 99t-6 82z" />
<glyph unicode="n" horiz-adv-x="1193" d="M168 1024l188 10l6 -114q154 124 338 124q167 0 245.5 -91.5t78.5 -252.5v-530q0 -33 2.5 -75.5t5.5 -68.5l2 -26h-200v633q0 126 -51.5 187t-166.5 61q-116 0 -249 -70q4 -40 4 -195v-446q0 -33 2.5 -75.5t4.5 -68.5l3 -26h-201v813q0 46 -3 99t-6 82z" />
<glyph unicode="o" horiz-adv-x="1224" d="M117 467q0 271 139 424t383 153q218 0 343.5 -132.5t125.5 -352.5q0 -271 -139.5 -425t-382.5 -154q-218 0 -343.5 133.5t-125.5 353.5zM311 557q0 -215 82 -324.5t236 -109.5q126 0 205 101t79 245q0 215 -81.5 324.5t-235.5 109.5q-126 0 -205.5 -100.5t-79.5 -245.5z " />
<glyph unicode="p" horiz-adv-x="1226" d="M168 1024l188 10l6 -98q120 108 314 108q88 0 160.5 -25.5t123 -70t85.5 -105t51 -130t16 -146.5q0 -273 -141.5 -430t-376.5 -157q-126 0 -223 59v-381q0 -33 2.5 -75.5t4.5 -68.5l3 -26h-201v1325q0 46 -3 99t-6 82zM367 813q4 -32 4 -197v-413q96 -80 235 -80 q147 0 227 106t80 277q0 181 -71 278t-215 97q-147 0 -260 -68z" />
<glyph unicode="q" horiz-adv-x="1243" d="M115 467q0 268 143.5 422.5t388.5 154.5q148 0 271 -73l81 53h66v-1366q0 -33 2.5 -75.5t4.5 -68.5l3 -26h-201v608q-58 -55 -141.5 -85.5t-177.5 -30.5q-111 0 -197 39t-138 107t-78.5 154t-26.5 187zM313 514q0 -168 75 -269.5t212 -101.5q164 0 274 78v613 q-105 69 -235 69q-158 0 -242 -108.5t-84 -280.5z" />
<glyph unicode="r" horiz-adv-x="899" d="M168 1024l192 10l5 -155q140 165 258 165q39 0 75 -9t58 -19.5t57.5 -29.5t56.5 -28l-71 -159q-31 12 -74 34.5t-74.5 34t-68.5 11.5t-78.5 -21t-67.5 -43t-69 -63q4 -24 4 -146v-436q0 -33 2.5 -75.5t4.5 -68.5l3 -26h-201v813q0 46 -3 99t-6 82z" />
<glyph unicode="s" horiz-adv-x="919" d="M113 23l16 167q39 -4 149.5 -26.5t176.5 -22.5q198 0 198 123q0 60 -55 96t-190 82q-144 47 -212.5 124.5t-68.5 193.5q0 132 89 208t233 76q79 0 175.5 -19t141.5 -21l-16 -166q-61 4 -152.5 24.5t-155.5 20.5q-71 0 -111 -31.5t-40 -83.5q0 -64 48 -97.5t198 -86.5 q142 -48 211 -119t69 -186q0 -139 -99.5 -219t-273.5 -80q-71 0 -180 19.5t-151 23.5z" />
<glyph unicode="t" horiz-adv-x="854" d="M80 887v114l137 23l105 238h79v-238h379l-6 -147l-373 4v-555q0 -195 187 -195q47 0 95 8.5t73 16.5l24 8v-141q-11 -5 -30.5 -12t-80.5 -19t-124 -12q-332 0 -332 337v402q0 34 2.5 75.5t4.5 65.5l3 25z" />
<glyph unicode="u" horiz-adv-x="1193" d="M160 1024h200v-649q0 -114 49 -173t158 -59q130 0 256 68v643q0 33 -2.5 75.5t-4.5 68.5l-3 26h201v-811q0 -46 3 -99t6 -82l3 -30l-190 -10l-9 108q-150 -120 -340 -120q-317 0 -317 344v530q0 33 -2.5 75.5t-5.5 68.5z" />
<glyph unicode="v" horiz-adv-x="1024" d="M37 1024l215 10l217 -622q19 -56 35 -117t22 -94l6 -33h9q22 115 65 240l115 327q42 131 65 289h175q-14 -166 -84 -346l-267 -678l-186 -10l-301 823q-20 56 -41.5 108.5t-33.5 77.5z" />
<glyph unicode="w" horiz-adv-x="1581" d="M47 1024l195 10l180 -608q17 -56 32 -120.5t21 -101.5l6 -36h8q11 121 48 262l100 387q9 32 20 83.5t18 87.5l7 36l190 14l172 -596q18 -61 35 -128.5t25 -104.5l8 -37h8q31 133 68 266l78 271q45 172 55 315h178q-4 -94 -26 -187.5t-66 -226.5l-209 -610l-188 -10 l-187 624q-14 45 -26 98t-17 83l-6 30h-8q-12 -113 -37 -209l-151 -616l-207 -10l-252 823q-17 57 -35 110t-28 77z" />
<glyph unicode="x" horiz-adv-x="1097" d="M53 0q53 98 221 309l160 201l-233 344q-29 43 -61.5 85.5t-49.5 63.5l-18 21l237 10l264 -403l101 147q46 69 82.5 130.5t49.5 88.5l13 27h197q-91 -160 -228 -340l-126 -166l268 -362l121 -156l-238 -10l-287 405l-116 -159q-56 -77 -96 -136t-52 -80l-12 -20h-197z" />
<glyph unicode="y" horiz-adv-x="1015" d="M37 1024l219 10l199 -602q18 -56 35 -121t24 -102l8 -37h8q27 134 78 279l70 202q50 145 69.5 217.5t28.5 153.5h180q-11 -140 -118 -414l-246 -628q-59 -152 -99.5 -277.5t-51.5 -174.5l-11 -50l-188 8q2 16 9.5 48.5t48 152.5t103.5 264l17 39l-297 821 q-20 56 -41.5 108.5t-33.5 77.5z" />
<glyph unicode="z" horiz-adv-x="985" d="M84 0v20l520 857l-328 -7l-167 -8l14 162h762v-20l-523 -857l390 7l141 8l-16 -162h-793z" />
<glyph unicode="{" horiz-adv-x="694" d="M37 625q80 22 125 52.5t69.5 90.5t24.5 158v379q0 152 60.5 227.5t193.5 75.5h111v-105h-48q-91 0 -124 -50.5t-33 -147.5v-424q0 -153 -107 -246q107 -79 107 -223v-516q0 -97 33 -148t124 -51h48v-105h-111q-132 0 -193 76t-61 228v464q0 149 -55 207q-71 -26 -146 -32 z" />
<glyph unicode="|" horiz-adv-x="528" d="M184 -530v2097h160v-2097h-160z" />
<glyph unicode="}" horiz-adv-x="696" d="M76 -303h47q91 0 124.5 51t33.5 148v423q0 151 104 244q-104 79 -104 225v517q0 97 -33.5 147.5t-124.5 50.5h-47v105h110q133 0 193.5 -75.5t60.5 -227.5v-465q0 -150 56 -209q61 25 145 35l18 -91q-80 -22 -125 -52.5t-69.5 -90.5t-24.5 -158v-378q0 -152 -61 -228 t-193 -76h-110v105z" />
<glyph unicode="~" horiz-adv-x="1239" d="M119 575q3 8 9 20.5t30 44.5t54.5 57t84.5 45t117 20q69 0 128.5 -21t95.5 -45.5t87.5 -45.5t105.5 -21q37 0 70 13.5t53 32t35 37.5t21 32l6 14l108 -109q-1 -4 -4 -10.5t-15 -26t-26.5 -37t-39 -39t-53.5 -37t-70 -26t-87 -10.5q-69 0 -129.5 21t-96 45.5t-86.5 45.5 t-105 21q-37 0 -70 -13.5t-53 -32t-35 -37.5t-21 -33l-6 -13z" />
<glyph unicode="&#xa2;" horiz-adv-x="1001" d="M96 479q0 222 114 374.5t290 182.5v213h159v-211q19 -3 90.5 -17.5t116.5 -16.5l-16 -168q-48 4 -140.5 25.5t-140.5 21.5q-139 0 -208.5 -94.5t-69.5 -260.5q0 -170 83 -277.5t234 -107.5q68 0 133 14t96 28l31 14v-152q-78 -47 -209 -63v-217h-159v217 q-196 23 -300 156.5t-104 338.5z" />
<glyph unicode="&#xa3;" horiz-adv-x="1161" d="M117 578v151h186l-16 213q-12 157 31 272.5t147.5 182.5t261.5 67q62 0 153.5 -19t137.5 -22l-17 -168q-56 5 -144.5 26.5t-135.5 21.5q-58 0 -101.5 -15t-78 -50t-49 -100t-7.5 -159l19 -250h446v-151h-434q4 -100 -13.5 -181t-42.5 -125t-59 -75.5t-51.5 -40.5 t-30.5 -13l715 25l-10 -168h-905v131q5 2 13 5.5t31 18t43 33.5t44.5 53t40.5 73.5t24.5 98.5t3.5 126l-4 39h-198z" />
<glyph unicode="&#xa5;" horiz-adv-x="1341" d="M80 1434l229 10l398 -725l243 471q36 68 63 129t37 88l9 27h198q-44 -131 -163 -324l-248 -426h244v-152h-310v-198h310v-152h-310q0 -41 3 -86.5t5 -70.5l3 -25h-211v182h-332v152h332v198h-332v152h266l-315 561q-24 42 -54 89t-47 74z" />
<glyph unicode="&#xa8;" horiz-adv-x="1028" d="M184 1401q0 53 36.5 84t94.5 31q55 0 87 -30t32 -81q0 -56 -35 -88.5t-94 -32.5q-53 0 -87 32.5t-34 84.5zM594 1401q0 53 36.5 84t94.5 31q55 0 87 -30t32 -81q0 -56 -35 -88.5t-94 -32.5q-53 0 -87 32.5t-34 84.5z" />
<glyph unicode="&#xa9;" horiz-adv-x="1671" d="M104 725q0 204 96 374.5t265 269.5t373 99q203 0 371.5 -99t264 -269.5t95.5 -374.5q0 -151 -57.5 -288t-154.5 -236.5t-233 -158t-286 -58.5q-205 0 -373.5 98t-264.5 268t-96 375zM285 725q0 -162 71.5 -296.5t198.5 -212t283 -77.5q152 0 279.5 78.5t200.5 213 t73 294.5q0 162 -72 297t-199 213t-282 78q-156 0 -283 -78t-198.5 -213t-71.5 -297zM471 713q0 191 112.5 313.5t276.5 122.5q47 0 120.5 -15.5t109.5 -17.5l-23 -141q-35 3 -107 20t-110 17q-113 0 -162 -65.5t-49 -196.5t62.5 -207t185.5 -76q50 0 100 10.5t75 20.5 l25 10v-131q-10 -6 -28 -14.5t-80.5 -22.5t-130.5 -14q-176 0 -276.5 107t-100.5 280z" />
<glyph unicode="&#xab;" horiz-adv-x="1112" d="M63 473v59l103 95q192 177 293 360l131 -69q-31 -68 -102.5 -167.5t-151.5 -170.5l-86 -78l86 -76q80 -71 151.5 -170.5t102.5 -167.5l-131 -70q-103 185 -293 361zM494 473v59l102 95q182 170 274 329l134 -69q-40 -72 -104 -158t-134 -149l-86 -78l86 -76 q69 -62 132.5 -146t102.5 -155l-133 -72q-100 168 -272 326z" />
<glyph unicode="&#xad;" d="M156 516v141l596 21v-141z" />
<glyph unicode="&#xae;" horiz-adv-x="1003" d="M113 1077q0 163 113 275t276 112t276 -112t113 -275q0 -161 -113.5 -273t-275.5 -112q-163 0 -276 111.5t-113 273.5zM236 1077q0 -119 76 -199.5t190 -80.5q112 0 188 81t76 199q0 119 -75.5 201t-188.5 82t-189.5 -82t-76.5 -201zM354 1286h160q77 0 119.5 -34 t42.5 -93q0 -72 -72 -104l53 -109l27 -49l-115 -4l-57 135h-55v-70l4 -61h-103v322zM457 1098h41q73 0 73 59q0 27 -20.5 42t-56.5 15h-37v-116z" />
<glyph unicode="&#xb4;" horiz-adv-x="602" d="M88 1294l328 371l137 -141l-383 -316z" />
<glyph unicode="&#xb8;" horiz-adv-x="491" d="M0 -340l35 82q100 -43 180 -43q45 0 72.5 14.5t27.5 38.5q0 27 -30 43t-66.5 16t-66.5 -8l-43 52l84 190l65 -8l16 -127q94 -6 149.5 -46t55.5 -106q0 -70 -63.5 -119t-159.5 -49q-139 0 -256 70z" />
<glyph unicode="&#xbb;" horiz-adv-x="1112" d="M109 887l133 69q92 -159 274 -329l102 -95v-59l-102 -94q-172 -158 -272 -326l-133 72q39 71 102.5 155t132.5 146l84 76l-84 78q-70 63 -133.5 148.5t-103.5 158.5zM522 88q31 68 102.5 167.5t151.5 170.5l84 76l-84 78q-80 71 -151.5 170.5t-102.5 167.5l131 69 q101 -183 293 -360l103 -95v-59l-103 -94q-190 -176 -293 -361z" />
<glyph unicode="&#x2c6;" horiz-adv-x="786" d="M61 1206l312 258h41l309 -254l-94 -108l-236 160l-237 -160z" />
<glyph unicode="&#x2da;" horiz-adv-x="630" d="M59 1262q0 103 73 165t183 62t182 -62t72 -165q0 -104 -72 -166t-182 -62t-183 62.5t-73 165.5zM207 1262q0 -48 29.5 -79.5t78.5 -31.5t78 31.5t29 79.5t-29 79t-78 31t-78.5 -31t-29.5 -79z" />
<glyph unicode="&#x2dc;" horiz-adv-x="868" d="M78 1135q19 114 81.5 172.5t145.5 58.5q45 0 85 -18t64.5 -39.5t57 -39.5t63.5 -18q76 0 97 101l131 -33q-19 -117 -78 -174.5t-141 -57.5q-45 0 -85.5 18t-65 39.5t-55.5 39.5t-59 18q-36 0 -64.5 -24.5t-41.5 -75.5z" />
<glyph unicode="&#x401;" horiz-adv-x="1208" d="M199 1434h886l-10 -162q-100 10 -198 12l-465 6v-491l571 10l-10 -176l-561 16v-504l512 7q46 1 86.5 4t57.5 6l17 2l-10 -164h-864v1225q0 46 -3 98.5t-6 81.5zM324 1706q0 53 36.5 84t94.5 31q55 0 86.5 -30t31.5 -81q0 -56 -35 -88.5t-94 -32.5q-53 0 -86.5 32.5 t-33.5 84.5zM733 1706q0 53 36.5 84t94.5 31q55 0 87 -30t32 -81q0 -56 -35 -88.5t-94 -32.5q-53 0 -87 32.5t-34 84.5z" />
<glyph unicode="&#x402;" horiz-adv-x="1564" d="M43 1270l6 164h1110l-8 -166q-82 10 -164 12l-285 8v-403q131 37 283 37q104 0 192 -25t157.5 -76.5t109 -138.5t39.5 -201q0 -166 -94.5 -297t-298.5 -209l-76 140q142 65 205 146.5t63 223.5q0 133 -95 203t-233 70q-150 0 -252 -21v-547q0 -42 3 -89.5t5 -74.5l3 -26 h-211v1288l-297 -8q-43 -1 -83.5 -3.5t-59.5 -4.5z" />
<glyph unicode="&#x403;" horiz-adv-x="1058" d="M199 1434h825l-10 -158q-68 8 -142 8l-460 4v-1098q0 -42 2.5 -89.5t5.5 -74.5l2 -26h-211v1225q0 46 -3 98.5t-6 81.5zM436 1583l328 371l137 -142l-383 -315z" />
<glyph unicode="&#x404;" horiz-adv-x="1220" d="M127 674q0 236 72.5 411t221 275t359.5 100q57 0 116.5 -7t125 -18.5t100.5 -15.5l-28 -164q-6 1 -137.5 21t-208.5 20q-164 0 -274 -132t-130 -367l602 12v-170l-606 8q13 -229 135 -364.5t350 -135.5q56 0 128 10.5t115 21.5l44 11v-159q-14 -6 -40.5 -14.5 t-113.5 -22.5t-180 -14q-194 0 -343 88.5t-228.5 246t-79.5 359.5z" />
<glyph unicode="&#x405;" horiz-adv-x="1136" d="M131 1067q0 176 131.5 284.5t353.5 108.5q84 0 205 -18.5t164 -22.5l-29 -164q-49 3 -165.5 22t-198.5 19q-124 0 -193 -54.5t-69 -147.5q0 -104 69 -167t217 -120q58 -22 95 -37t85 -39t77.5 -45.5t62 -53t50 -65.5t29 -79.5t11.5 -98.5q0 -193 -143.5 -301t-403.5 -108 q-101 0 -187.5 12.5t-122.5 25.5l-36 13v157q17 -5 47 -13t120.5 -21t178.5 -13q163 0 255.5 57.5t92.5 170.5q0 39 -10.5 71.5t-34.5 59.5t-50 47.5t-70 41t-80.5 35t-94.5 35.5q-81 28 -141 61.5t-111 81.5t-77.5 114.5t-26.5 150.5z" />
<glyph unicode="&#x406;" horiz-adv-x="622" d="M199 1436l213 10v-1256q0 -42 2.5 -89.5t5.5 -74.5l2 -26h-211v1225q0 46 -3 99t-6 82z" />
<glyph unicode="&#x407;" horiz-adv-x="622" d="M-12 1747q0 53 36.5 84t94.5 31q55 0 87 -30t32 -81q0 -56 -35 -88.5t-94 -32.5q-53 0 -87 32.5t-34 84.5zM199 1436l213 10v-1256q0 -42 2.5 -89.5t5.5 -74.5l2 -26h-211v1225q0 46 -3 99t-6 82zM397 1747q0 53 36.5 84t94.5 31q55 0 87 -30t32 -81q0 -56 -35 -88.5 t-94 -32.5q-53 0 -87 32.5t-34 84.5z" />
<glyph unicode="&#x408;" horiz-adv-x="620" d="M-18 -328q22 31 77.5 97.5t85 113.5t45.5 103q21 79 21 198v1041q0 46 -3 99t-6 82l-3 30l213 10v-1260q0 -126 -37 -233q-24 -68 -65.5 -129.5t-114 -144.5t-91.5 -107z" />
<glyph unicode="&#x409;" horiz-adv-x="1998" d="M14 160q54 13 97 38.5t77 73.5t59 98.5t45 139t33.5 168t26.5 213.5t21.5 247.5t19.5 295.5h797v-506h190q263 0 401 -118t138 -337q0 -201 -146.5 -337t-371.5 -136h-412v1282h-424q-13 -187 -22.5 -298t-28 -258t-40.5 -234t-58 -186t-82 -155.5t-111.5 -101.5 t-148.5 -63zM1190 154h211q147 0 230 79t83 211q0 150 -89 240t-273 90h-162v-620z" />
<glyph unicode="&#x40a;" horiz-adv-x="2105" d="M199 1436l213 10v-625h684v404q0 46 -3 99t-7 82l-3 30l213 10v-518h191q263 0 400.5 -118t137.5 -337q0 -201 -146.5 -337t-371.5 -136h-411v670h-684v-480q0 -42 2.5 -89.5t5.5 -74.5l2 -26h-211v1225q0 46 -3 99t-6 82zM1296 154h211q147 0 230.5 79t83.5 211 q0 150 -89 240t-274 90h-162v-620z" />
<glyph unicode="&#x40b;" horiz-adv-x="1576" d="M43 1270l6 164h1110l-8 -166q-82 10 -164 12l-285 8v-403q135 37 250 37q510 0 510 -473v-449h-200v428q0 330 -334 330q-51 0 -107.5 -5t-87.5 -9l-31 -5v-549q0 -42 3 -89.5t5 -74.5l3 -26h-211v1288l-297 -8q-43 -1 -83.5 -3.5t-59.5 -4.5z" />
<glyph unicode="&#x40c;" horiz-adv-x="1286" d="M199 1436l213 10v-637h143q208 268 290 387t148 238h209q-76 -134 -176.5 -275t-320.5 -411l450 -605q23 -30 54 -66t51 -57l20 -20l-244 -10l-497 669h-127v-469q0 -42 2.5 -89.5t5.5 -74.5l2 -26h-211v1225q0 46 -3 99t-6 82zM584 1620l327 371l138 -142l-383 -315z " />
<glyph unicode="&#x40e;" horiz-adv-x="1179" d="M10 1434l217 6l312 -688q25 -56 48 -114t33 -88l11 -30h6q31 104 80 223l147 365q35 88 60.5 169.5t33.5 118.5l9 38h184q-4 -20 -14 -56.5t-52.5 -156.5t-99.5 -248l-252 -572q-62 -141 -103 -241t-51 -130l-10 -30h-202q71 172 157 340l-405 883q-22 47 -49 100t-44 82 zM256 1747l111 139q8 -7 32.5 -30t34.5 -31t32 -25.5t37 -24.5t37 -17t44.5 -13.5t48.5 -3.5t48.5 3.5t44.5 13.5t37 17t37 24.5t32 25.5t34.5 31t32.5 30l111 -139q-57 -56 -157 -99.5t-220 -43.5q-124 0 -221 43t-156 100z" />
<glyph unicode="&#x40f;" horiz-adv-x="1548" d="M199 1436l213 10v-1294h725v1073q0 46 -3.5 99t-6.5 82l-3 30l213 10v-1256q0 -42 2.5 -89.5t5.5 -74.5l3 -26h-461v-246q0 -39 2.5 -85t4.5 -73l3 -26l-184 -12l-17 442h-485v1225q0 46 -3 99t-6 82z" />
<glyph unicode="&#x410;" horiz-adv-x="1273" d="M53 0q8 58 24 121.5t31 109t46 131.5l385 1065l182 13l442 -1194q24 -68 49.5 -128.5t38.5 -87.5l13 -26l-211 -12l-135 368h-590l-17 -51q-63 -188 -80 -309h-178zM377 506h487l-186 514q-16 45 -32 97.5t-24 82.5l-8 29h-8q-22 -111 -55 -207z" />
<glyph unicode="&#x411;" horiz-adv-x="1243" d="M199 1434h845l-10 -164q-84 8 -190 10l-432 8v-422h188q257 0 398 -114t141 -295q0 -214 -146.5 -335.5t-392.5 -121.5h-389v1225q0 46 -3 98.5t-6 81.5zM412 147h172q173 0 261.5 76.5t88.5 210.5q0 140 -84.5 211.5t-265.5 71.5h-172v-570z" />
<glyph unicode="&#x412;" horiz-adv-x="1259" d="M199 1434h430q223 0 335.5 -98t112.5 -263q0 -107 -56 -191.5t-144 -125.5v-4q123 -33 192.5 -125t69.5 -207q0 -201 -137 -310.5t-371 -109.5h-420v1225q0 46 -3 98.5t-6 81.5zM408 145h239q130 0 209.5 71.5t79.5 199.5q0 119 -77 190.5t-210 71.5h-241v-533zM408 825 h340q5 3 13.5 8.5t30.5 26.5t38.5 45t30 64.5t13.5 85.5q0 233 -268 233h-198v-463z" />
<glyph unicode="&#x413;" horiz-adv-x="1058" d="M199 1434h825l-10 -158q-68 8 -142 8l-460 4v-1098q0 -42 2.5 -89.5t5.5 -74.5l2 -26h-211v1225q0 46 -3 98.5t-6 81.5z" />
<glyph unicode="&#x414;" horiz-adv-x="1486" d="M18 147h103q53 65 93 146.5t66.5 182.5t45 199t30.5 231.5t19 240.5t15 264v8t0.5 7t0.5 8h830v-1287h190v-372q0 -39 2.5 -85.5t4.5 -73.5l3 -26l-174 -12l-16 422h-1028v-225q0 -39 2.5 -85.5t4.5 -73.5l3 -26l-174 -12zM326 147h694v1139h-461q-21 -416 -70 -682 t-163 -457z" />
<glyph unicode="&#x415;" horiz-adv-x="1208" d="M199 1434h886l-10 -162q-100 10 -198 12l-465 6v-491l571 10l-10 -176l-561 16v-504l512 7q46 1 86.5 4t57.5 6l17 2l-10 -164h-864v1225q0 46 -3 98.5t-6 81.5z" />
<glyph unicode="&#x416;" horiz-adv-x="1933" d="M14 0q70 72 129 154l432 594q-237 295 -328.5 424t-162.5 260l213 12q3 -6 21 -40t21.5 -40.5t21 -38.5t26 -45t30 -47.5t39.5 -59t47 -66.5t60.5 -83t72.5 -95t89 -116h143v412q0 46 -3 99t-6 82l-3 30l213 10v-633h150q151 186 241 312.5t121 182.5t66 136l204 -12 q-61 -112 -91.5 -164t-133.5 -191t-264 -329l440 -605q22 -30 52 -66t50 -57l19 -20l-240 -10l-487 682h-127v-482q0 -42 2.5 -89.5t4.5 -74.5l3 -26h-211v672h-127l-487 -682z" />
<glyph unicode="&#x417;" horiz-adv-x="1064" d="M84 31v153q17 -5 46 -13t114.5 -21t163.5 -13q165 0 244 73.5t79 201.5q0 125 -73 193.5t-212 68.5h-143v149h158q120 0 183 64t63 170q0 111 -59.5 180.5t-188.5 69.5q-67 0 -186.5 -19.5t-137.5 -21.5l-26 153q32 4 101 15.5t132.5 18.5t126.5 7q221 0 331.5 -104.5 t110.5 -280.5q0 -111 -59 -196.5t-172 -124.5v-6q119 -23 187.5 -115t68.5 -215q0 -193 -137.5 -315.5t-384.5 -122.5q-87 0 -169.5 12.5t-121.5 25.5z" />
<glyph unicode="&#x418;" horiz-adv-x="1568" d="M199 1436l213 10v-979q0 -55 -4 -111t-8 -85l-5 -29l11 -2q45 106 102 198l659 998l191 10v-1256q0 -42 2.5 -89.5t5.5 -74.5l2 -26h-211v1008q0 46 3.5 93t7.5 71l3 24l-8 2q-29 -86 -92 -186l-670 -1012h-190v1225q0 46 -3 99t-6 82z" />
<glyph unicode="&#x419;" horiz-adv-x="1568" d="M199 1436l213 10v-979q0 -55 -4 -111t-8 -85l-5 -29l11 -2q43 108 102 198l659 998l191 10v-1256q0 -42 2.5 -89.5t5.5 -74.5l2 -26h-211v1008q0 46 3.5 93t7.5 71l3 24l-8 2q-26 -88 -92 -186l-670 -1012h-190v1225q0 46 -3 99t-6 82zM430 1757l111 131q39 -35 61 -53 t57 -40.5t71 -32t77 -9.5q75 0 133 33.5t133 101.5l111 -131q-60 -58 -156 -101.5t-221 -43.5q-227 0 -377 145z" />
<glyph unicode="&#x41a;" horiz-adv-x="1286" d="M199 1436l213 10v-637h143q208 268 290 387t148 238h209q-76 -134 -176.5 -275t-320.5 -411l450 -605q23 -30 54 -66t51 -57l20 -20l-244 -10l-497 669h-127v-469q0 -42 2.5 -89.5t5.5 -74.5l2 -26h-211v1225q0 46 -3 99t-6 82z" />
<glyph unicode="&#x41b;" horiz-adv-x="1396" d="M10 160q54 13 97 38.5t77 73.5t59 98.5t45 139t33.5 168t26.5 213.5t21.5 247.5t19.5 295.5h797v-1244q0 -42 2.5 -89.5t5.5 -74.5l2 -26h-211v1282h-424q-13 -187 -22.5 -298t-28 -258t-40.5 -234t-58 -186t-82 -155.5t-111.5 -101.5t-148.5 -63z" />
<glyph unicode="&#x41c;" horiz-adv-x="1855" d="M199 1436l184 10l455 -686l82 -137h6q43 82 82 141l440 672l197 10v-1256q0 -42 2.5 -89.5t4.5 -74.5l3 -26h-207v999q0 47 2.5 91.5t5.5 65.5l2 20l-8 2q-41 -88 -92 -164l-434 -666h-29l-426 641q-23 33 -45 71t-32 60l-11 21l-6 -2q8 -85 8 -185v-784q0 -33 2.5 -75.5 t4.5 -68.5l3 -26h-182v1202q0 46 -3 104.5t-6 93.5z" />
<glyph unicode="&#x41d;" horiz-adv-x="1548" d="M199 1436l213 10v-629h725v408q0 46 -3.5 99t-6.5 82l-3 30l213 10v-1256q0 -42 2.5 -89.5t5.5 -74.5l3 -26h-211v666h-725v-476q0 -42 2.5 -89.5t5.5 -74.5l2 -26h-211v1225q0 46 -3 99t-6 82z" />
<glyph unicode="&#x41e;" horiz-adv-x="1538" d="M129 690q0 172 40 310t119.5 240.5t207.5 158t297 55.5q122 0 224 -39t173.5 -106t121.5 -158t73.5 -194t23.5 -214q0 -172 -40 -310t-119.5 -240t-207.5 -157.5t-297 -55.5q-122 0 -224 39t-173.5 106t-121.5 157.5t-73.5 193.5t-23.5 214zM338 741q0 -94 13.5 -179 t46 -166.5t82.5 -141t128.5 -95.5t177.5 -36q85 0 154 29t117 80.5t80.5 123.5t47.5 156t15 180q0 94 -13.5 179t-46 167t-82.5 141t-128.5 95.5t-177.5 36.5q-105 0 -186 -44.5t-130 -123t-73.5 -180t-24.5 -222.5z" />
<glyph unicode="&#x41f;" horiz-adv-x="1527" d="M199 1434h1118v-1244q0 -42 2.5 -89.5t4.5 -74.5l3 -26h-211v1282h-704v-1092q0 -42 2.5 -89.5t5.5 -74.5l2 -26h-211v1223q0 46 -3 99t-6 82z" />
<glyph unicode="&#x420;" horiz-adv-x="1224" d="M199 1434h401q262 0 400.5 -123t138.5 -342q0 -95 -38 -180t-105 -147.5t-164.5 -99t-210.5 -36.5h-209v-316q0 -42 2.5 -89.5t5.5 -74.5l2 -26h-211v1225q0 46 -3 98.5t-6 81.5zM412 655h209q146 0 229.5 87t83.5 225q0 66 -21 122.5t-63.5 101t-113.5 70t-165 25.5 h-159v-631z" />
<glyph unicode="&#x421;" horiz-adv-x="1216" d="M127 674q0 236 72.5 411t221 275t359.5 100q57 0 116.5 -7t125 -18.5t100.5 -15.5l-28 -159q-3 0 -136 20t-210 20q-122 0 -217 -74t-145 -200t-50 -281q0 -96 15 -181.5t50.5 -163.5t88.5 -134.5t135 -89.5t184 -33q82 0 154 9.5t103 19.5l32 10l35 -143 q-12 -7 -36 -16.5t-111.5 -26t-190.5 -16.5q-305 0 -486.5 193t-181.5 501z" />
<glyph unicode="&#x422;" horiz-adv-x="1198" d="M43 1270l6 164h1110l-8 -166q-82 10 -164 12l-285 8v-1098q0 -42 3 -89.5t5 -74.5l3 -26h-211v1288l-297 -8q-43 -1 -83.5 -3.5t-59.5 -4.5z" />
<glyph unicode="&#x423;" horiz-adv-x="1179" d="M10 1434l217 6l312 -688q25 -56 48 -114t33 -88l11 -30h6q31 104 80 223l147 365q35 88 60.5 169.5t33.5 118.5l9 38h184q-4 -20 -14 -56.5t-52.5 -156.5t-99.5 -248l-252 -572q-62 -141 -103 -241t-51 -130l-10 -30h-202q71 172 157 340l-405 883q-22 47 -49 100t-44 82 z" />
<glyph unicode="&#x424;" horiz-adv-x="1748" d="M98 750q0 94 21 177.5t70 158t122 128t183 84.5t247 31h39q0 47 -2.5 99t-5.5 80l-2 28l199 10v-217h39q137 0 247 -31t183 -84.5t122 -128t70 -158t21 -177.5q0 -89 -21 -171t-70 -158.5t-121.5 -132t-183 -89t-247.5 -33.5h-39q0 -38 2.5 -90t4.5 -84l3 -33h-197 l-2 207h-39q-137 0 -247.5 33.5t-183 89t-121.5 132t-70 158.5t-21 171zM299 750q0 -217 121 -331t340 -114h20v885h-20q-220 0 -340.5 -112.5t-120.5 -327.5zM969 305h20q219 0 340 114t121 331q0 215 -120.5 327.5t-340.5 112.5h-20v-885z" />
<glyph unicode="&#x425;" horiz-adv-x="1294" d="M47 0q84 164 238 375l256 348l-328 494q-37 57 -74.5 111.5t-56.5 79.5l-19 26l250 10l363 -588l188 299q48 76 86.5 146t53.5 101l14 32h209q-62 -141 -207 -344l-260 -363l350 -530l135 -197l-237 -10l-383 604l-183 -283q-52 -81 -97 -158.5t-64 -114.5l-19 -38h-215z " />
<glyph unicode="&#x426;" horiz-adv-x="1603" d="M199 1436l213 10v-1294h725v1073q0 46 -3.5 99t-6.5 82l-3 30l213 10v-1294h191v-377q0 -39 2.5 -85.5t5.5 -73.5l2 -26l-174 -12l-16 422h-1137v1225q0 46 -3 99t-6 82z" />
<glyph unicode="&#x427;" horiz-adv-x="1368" d="M94 1436l213 10v-377q0 -395 340 -395q76 0 153.5 7t116.5 14l39 7v523q0 46 -3 99t-6 82l-3 30l213 10v-1256q0 -42 2.5 -89.5t4.5 -74.5l3 -26h-211v569q-17 -5 -46.5 -13t-118.5 -21t-173 -13q-114 0 -203 27t-146.5 73t-94.5 112.5t-52.5 140.5t-15.5 161v189 q0 46 -3 99t-6 82z" />
<glyph unicode="&#x428;" horiz-adv-x="2080" d="M199 1436l213 10v-1294h528v1073q0 46 -3 99t-6 82l-3 30l213 10v-1294h528v1073q0 46 -3 99t-6 82l-3 30l213 10v-1256q0 -42 2.5 -89.5t5.5 -74.5l2 -26h-1669v1225q0 46 -3 99t-6 82z" />
<glyph unicode="&#x429;" horiz-adv-x="2136" d="M199 1436l213 10v-1294h528v1073q0 46 -3 99t-6 82l-3 30l213 10v-1294h528v1073q0 46 -3 99t-6 82l-3 30l213 10v-1294h190v-377q0 -39 3 -85.5t5 -73.5l3 -26l-175 -12l-16 422h-1669v1225q0 46 -3 99t-6 82z" />
<glyph unicode="&#x42a;" horiz-adv-x="1415" d="M41 1434h567v-506h209q231 0 374.5 -127t143.5 -338q0 -208 -144.5 -335.5t-373.5 -127.5h-409v1286l-218 -4q-30 0 -67 -2.5t-59 -5.5l-21 -2zM608 154h178q159 0 251.5 87t92.5 222q0 143 -92 227t-254 84h-176v-620z" />
<glyph unicode="&#x42b;" horiz-adv-x="1769" d="M199 1434l213 10v-516h209q231 0 374.5 -127t143.5 -338q0 -208 -144.5 -335.5t-373.5 -127.5h-410v1225q0 46 -3 98.5t-6 81.5zM412 154h178q159 0 251.5 87t92.5 222q0 143 -92 227t-254 84h-176v-620zM1346 1436l213 10v-1256q0 -42 2.5 -89.5t4.5 -74.5l3 -26h-211 v1225q0 46 -3 99t-6 82z" />
<glyph unicode="&#x42c;" horiz-adv-x="1218" d="M199 1434l213 10v-516h209q231 0 374.5 -127t143.5 -338q0 -208 -144.5 -335.5t-373.5 -127.5h-410v1225q0 46 -3 98.5t-6 81.5zM412 154h178q159 0 251.5 87t92.5 222q0 143 -92 227t-254 84h-176v-620z" />
<glyph unicode="&#x42d;" horiz-adv-x="1234" d="M88 39l41 172q33 -6 91 -26.5t122 -36t133 -15.5q185 0 289 135.5t123 376.5l-576 -16v180l578 -10q-11 232 -121.5 362.5t-306.5 130.5q-59 0 -116.5 -10t-97 -24.5t-71 -29t-46.5 -24.5l-15 -10v170q5 4 15 10.5t45.5 23.5t76.5 30t109.5 23.5t142.5 10.5 q186 0 324.5 -90.5t209 -244t70.5 -347.5q0 -132 -25.5 -251.5t-79 -221.5t-129.5 -176.5t-184 -117t-237 -42.5q-81 0 -150.5 13.5t-128.5 32t-86 22.5z" />
<glyph unicode="&#x42e;" horiz-adv-x="2064" d="M199 1436l213 10v-629h250q13 145 59.5 260.5t126 200.5t199 130.5t272.5 45.5q122 0 224 -39t173.5 -106t121.5 -158t73.5 -194t23.5 -214q0 -172 -39.5 -310t-119 -240t-207.5 -157.5t-297 -55.5q-120 0 -220.5 37t-172 101.5t-121.5 152t-75.5 187.5t-27.5 208h-243 v-476q0 -42 2.5 -89.5t5.5 -74.5l2 -26h-211v1225q0 46 -3 99t-6 82zM864 741q0 -94 13.5 -179t46.5 -166.5t83 -141t128.5 -95.5t177.5 -36q85 0 154 29t116.5 80.5t80 123.5t47.5 156t15 180q0 94 -13.5 179t-46 167t-82.5 141t-128.5 95.5t-177.5 36.5q-105 0 -186 -44.5 t-130 -123t-73.5 -180t-24.5 -222.5z" />
<glyph unicode="&#x42f;" horiz-adv-x="1304" d="M68 0l362 555q-125 56 -194.5 164t-69.5 252q0 208 144.5 335.5t373.5 127.5h410v-1225q0 -46 3 -98.5t6 -81.5l3 -29l-213 -10v516h-209q-47 0 -70 2l-317 -508h-229zM371 971q0 -143 92 -227.5t254 -84.5h176v621h-178q-159 0 -251.5 -87t-92.5 -222z" />
<glyph unicode="&#x430;" horiz-adv-x="1114" d="M98 250q0 121 84 205.5t246 109.5q119 19 279 19v63q0 130 -54.5 182t-175.5 52q-83 0 -159.5 -16.5t-111.5 -32.5l-36 -17v154q5 3 15.5 8t46 18t75 23t101.5 18t127 8q368 0 362 -368q-1 -39 -3 -145.5t-3.5 -197t-1.5 -145.5q0 -49 43 -49q19 0 43.5 10.5t39.5 20.5 l15 10v-141q-7 -7 -20 -16.5t-53.5 -26t-82.5 -16.5q-134 0 -165 126q-142 -126 -324 -126q-142 0 -214.5 78t-72.5 192zM291 272q0 -60 40.5 -98.5t112.5 -38.5q127 0 254 82q0 88 4 260q-155 -12 -229 -31q-99 -25 -140.5 -67.5t-41.5 -106.5z" />
<glyph unicode="&#x431;" horiz-adv-x="1251" d="M147 588q0 174 17.5 304.5t61.5 244t117.5 189t187 125t268.5 65.5q96 10 160.5 21t80.5 17l17 5l22 -177q-65 -29 -276 -49q-167 -18 -274 -82.5t-164 -173.5t-80 -278l10 -2q60 97 156 149.5t217 52.5q216 0 341.5 -131t125.5 -340q0 -257 -139.5 -402.5t-381.5 -145.5 q-216 0 -341.5 154t-125.5 454zM346 526q0 -200 79.5 -301.5t231.5 -101.5q124 0 201.5 93.5t77.5 227.5q0 200 -79.5 303t-231.5 103q-124 0 -201.5 -94.5t-77.5 -229.5z" />
<glyph unicode="&#x432;" horiz-adv-x="1085" d="M168 1024h401q171 0 266 -67.5t95 -184.5q0 -90 -51.5 -153t-135.5 -82v-7q102 -11 166 -68t64 -153q0 -78 -32 -138.5t-85.5 -97t-119 -55t-138.5 -18.5h-418v813q0 46 -3 99t-6 82zM369 145h213q100 0 149 44.5t49 119.5q0 144 -184 144h-227v-308zM369 594h202 q77 0 124.5 40.5t47.5 104.5q0 140 -186 140h-188v-285z" />
<glyph unicode="&#x433;" horiz-adv-x="872" d="M168 1024h661l-8 -164q-82 10 -164 10h-286v-700q0 -33 2.5 -75.5t4.5 -68.5l3 -26h-201v813q0 46 -3 99t-6 82z" />
<glyph unicode="&#x434;" horiz-adv-x="1239" d="M41 147h88q101 89 142.5 286.5t52.5 590.5h680v-877h159v-309q0 -33 2.5 -75.5t5.5 -68.5l3 -26l-175 -10l-14 342h-760v-162q0 -33 2.5 -75.5t5.5 -68.5l3 -26l-175 -10zM319 147h494v727h-330q-15 -568 -164 -727z" />
<glyph unicode="&#x435;" horiz-adv-x="1132" d="M115 475q0 268 137 418.5t356 150.5q157 0 258.5 -72.5t138 -192t15.5 -273.5h-711q19 -363 365 -363q63 0 134 14t110 28l40 14v-150q-5 -3 -15.5 -7.5t-44.5 -16.5t-71.5 -21t-96 -16.5t-118.5 -7.5q-236 0 -366.5 134t-130.5 361zM315 637l510 8q3 113 -52.5 186.5 t-172.5 73.5q-115 0 -189.5 -73t-95.5 -195z" />
<glyph unicode="&#x436;" horiz-adv-x="1652" d="M35 0q92 103 133 154l305 366l-174 203q-77 91 -132.5 166.5t-72.5 104.5l-16 30h196q44 -78 177 -236l172 -202h112v227q0 46 -3 99t-6 82l-3 30l195 10v-448h112l172 202q60 70 104.5 129t59.5 83l14 24h191q-6 -11 -19 -33t-71.5 -100t-137.5 -168l-169 -195l315 -374 l133 -154l-225 -10l-375 463h-104v-263q0 -42 2.5 -89.5t5.5 -74.5l2 -26h-193v453h-104l-375 -463z" />
<glyph unicode="&#x437;" horiz-adv-x="952" d="M86 47v143q12 -7 34 -16.5t94 -26t148 -16.5q131 0 201 49t70 129q0 69 -48.5 106.5t-140.5 37.5h-174v149h176q76 0 119 36.5t43 104.5q0 144 -192 144q-46 0 -94 -7t-105.5 -19.5t-81.5 -16.5l-33 157q30 4 90.5 16.5t116.5 19.5t121 7q109 0 194 -30t137 -93.5 t52 -152.5q0 -85 -46 -149t-128 -87v-6q95 -15 147 -75.5t52 -147.5q0 -142 -120 -232.5t-315 -90.5q-62 0 -118 7t-90.5 16.5t-60.5 19.5t-37 17z" />
<glyph unicode="&#x438;" horiz-adv-x="1261" d="M168 1024l203 10v-633q0 -43 -3.5 -91.5t-6.5 -75.5l-3 -27h9q35 84 94 172l430 645l190 10v-844q0 -42 2.5 -89.5t5.5 -74.5l3 -26h-201v666q0 39 3 77.5t6 56.5l3 19h-6q-29 -69 -78 -143l-448 -676h-191v813q0 46 -3 99t-6 82z" />
<glyph unicode="&#x439;" horiz-adv-x="1261" d="M168 1024l203 10v-633q0 -43 -3.5 -91.5t-6.5 -75.5l-3 -27h9q35 84 94 172l430 645l190 10v-844q0 -42 2.5 -89.5t5.5 -74.5l3 -26h-201v666q0 39 3 77.5t6 56.5l3 19h-6q-29 -69 -78 -143l-448 -676h-191v813q0 46 -3 99t-6 82zM256 1370l111 139q4 -4 23.5 -21.5 t24.5 -22t22.5 -19.5t25 -19.5t24 -16.5t26.5 -16t26.5 -11.5t30 -10.5t30 -5.5t33.5 -2.5q38 0 72 10.5t67.5 32.5t56.5 40.5t58 50.5q8 7 12 11l111 -139q-59 -57 -155.5 -100t-221.5 -43q-229 0 -377 143z" />
<glyph unicode="&#x43a;" horiz-adv-x="1075" d="M168 1024l203 10v-446h104l150 200q54 73 93 132t52 82l12 22h197q-52 -103 -195 -283l-166 -209l297 -378q25 -33 58.5 -71.5t54.5 -60.5l21 -22l-226 -10l-356 461h-96v-261q0 -42 2.5 -89.5t4.5 -74.5l3 -26h-201v813q0 46 -3 99t-6 82z" />
<glyph unicode="&#x43b;" horiz-adv-x="1163" d="M35 152q76 21 122 67.5t77 149t44 255.5t17 400h688v-854q0 -33 2.5 -75.5t4.5 -68.5l3 -26h-200v874h-332q-6 -188 -19 -317t-38.5 -234.5t-67 -170t-101 -105.5t-145.5 -59z" />
<glyph unicode="&#x43c;" horiz-adv-x="1527" d="M174 1024l195 10l309 -502l82 -137h4q37 63 82 135l307 494l186 10l13 -844q0 -42 3.5 -89.5t6.5 -74.5l4 -26h-201l-12 606q-1 40 0.5 87.5t3.5 74.5l2 27l-4 2q-41 -88 -88 -162l-309 -492h-31l-305 484q-20 31 -40.5 69t-31.5 60l-10 22l-4 -2q8 -90 8 -180l-2 -406 l10 -190h-176l6 813q1 46 -1 99t-5 82z" />
<glyph unicode="&#x43d;" horiz-adv-x="1210" d="M168 1024l203 10v-438h469v217q0 46 -3 99t-7 82l-3 30l203 10v-844q0 -42 2.5 -89.5t5.5 -74.5l2 -26h-200v444h-469v-254q0 -42 2.5 -89.5t4.5 -74.5l3 -26h-201v813q0 46 -3 99t-6 82z" />
<glyph unicode="&#x43e;" horiz-adv-x="1224" d="M117 467q0 271 139 424t383 153q218 0 343.5 -132.5t125.5 -352.5q0 -271 -139.5 -425t-382.5 -154q-218 0 -343.5 133.5t-125.5 353.5zM311 557q0 -215 82 -324.5t236 -109.5q126 0 205 101t79 245q0 215 -81.5 324.5t-235.5 109.5q-126 0 -205.5 -100.5t-79.5 -245.5z " />
<glyph unicode="&#x43f;" horiz-adv-x="1214" d="M168 1024h866v-854q0 -33 2.5 -75.5t5.5 -68.5l2 -26h-200v874h-473v-704q0 -33 2.5 -75.5t4.5 -68.5l3 -26h-201v813q0 46 -3 99t-6 82z" />
<glyph unicode="&#x440;" horiz-adv-x="1226" d="M168 1024l188 10l6 -98q120 108 314 108q88 0 160.5 -25.5t123 -70t85.5 -105t51 -130t16 -146.5q0 -273 -141.5 -430t-376.5 -157q-126 0 -223 59v-381q0 -33 2.5 -75.5t4.5 -68.5l3 -26h-201v1325q0 46 -3 99t-6 82zM367 813q4 -32 4 -197v-413q96 -80 235 -80 q147 0 227 106t80 277q0 181 -71 278t-215 97q-147 0 -260 -68z" />
<glyph unicode="&#x441;" horiz-adv-x="991" d="M115 479q0 247 137.5 406t341.5 159q61 0 153.5 -18.5t137.5 -21.5l-17 -168q-48 4 -140 25.5t-140 21.5q-139 0 -209 -94.5t-70 -260.5q0 -169 83 -277t235 -108q68 0 133 14t96 28l31 14v-152q-12 -8 -35 -19t-98 -29.5t-156 -18.5q-233 0 -358 137t-125 362z" />
<glyph unicode="&#x442;" horiz-adv-x="966" d="M49 864l6 160h865l-9 -160q-53 11 -143 13l-184 4v-711q0 -33 2.5 -75.5t5.5 -68.5l2 -26h-201v881l-194 -4q-42 -1 -79.5 -4t-53.5 -6z" />
<glyph unicode="&#x443;" horiz-adv-x="1015" d="M37 1024l219 10l199 -602q18 -56 35 -121t24 -102l8 -37h8q27 134 78 279l70 202q50 145 69.5 217.5t28.5 153.5h180q-11 -140 -118 -414l-246 -628q-59 -152 -99.5 -277.5t-51.5 -174.5l-11 -50l-188 8q2 16 9.5 48.5t48 152.5t103.5 264l17 39l-297 821 q-20 56 -41.5 108.5t-33.5 77.5z" />
<glyph unicode="&#x444;" horiz-adv-x="1701" d="M117 471q0 261 135.5 417t343.5 156q46 0 86 -9t57 -18l17 -9v317q0 46 -3 99t-7 82l-3 30l203 10v-557q108 55 221 55q108 0 190 -39t131 -107.5t73 -155t24 -189.5q0 -261 -135.5 -417t-343.5 -156q-46 0 -86 9t-57 18l-17 9v-358q0 -33 2.5 -75.5t5.5 -68.5l2 -26 h-200v547q-97 -55 -221 -55q-108 0 -190 39t-131 107.5t-73 155t-24 189.5zM315 520q0 -188 67 -293.5t212 -105.5q78 0 162 26v732q-50 30 -138 30q-151 0 -227 -107.5t-76 -281.5zM946 145q49 -30 137 -30q151 0 227 107.5t76 281.5q0 399 -278 399q-78 0 -162 -26v-732z " />
<glyph unicode="&#x445;" horiz-adv-x="1097" d="M53 0q53 98 221 309l160 201l-233 344q-29 43 -61.5 85.5t-49.5 63.5l-18 21l237 10l264 -403l101 147q46 69 82.5 130.5t49.5 88.5l13 27h197q-91 -160 -228 -340l-126 -166l268 -362l121 -156l-238 -10l-287 405l-116 -159q-56 -77 -96 -136t-52 -80l-12 -20h-197z" />
<glyph unicode="&#x446;" horiz-adv-x="1269" d="M168 1024l203 10v-887h473v666q0 46 -3 99t-7 82l-3 30l203 10v-887h160v-309q0 -33 2.5 -75.5t5.5 -68.5l2 -26l-174 -10l-14 342h-836v813q0 46 -3 99t-6 82z" />
<glyph unicode="&#x447;" horiz-adv-x="1095" d="M98 1024l203 10v-344q0 -111 47.5 -158t155.5 -47q58 0 113.5 8.5t81.5 16.5l26 8v295q0 46 -3 99t-6 82l-3 30l202 10v-844q0 -42 2.5 -89.5t5.5 -74.5l3 -26h-201v393q-12 -7 -34 -17.5t-96 -28t-153 -17.5q-152 0 -241.5 77.5t-89.5 243.5v162q0 46 -3.5 99t-6.5 82z " />
<glyph unicode="&#x448;" horiz-adv-x="1746" d="M168 1024l203 10v-884h407v663q0 46 -3 99t-6 82l-3 30l203 10v-884h407v663q0 46 -3 99t-6 82l-3 30l203 10v-864q0 -33 2.5 -75.5t4.5 -68.5l3 -26h-1397v813q0 46 -3 99t-6 82z" />
<glyph unicode="&#x449;" horiz-adv-x="1802" d="M168 1024l203 10v-887h407v666q0 46 -3 99t-6 82l-3 30l203 10v-887h407v666q0 46 -3 99t-6 82l-3 30l203 10v-887h159v-309q0 -33 3 -75.5t5 -68.5l3 -26l-174 -10l-15 342h-1368v813q0 46 -3 99t-6 82z" />
<glyph unicode="&#x44a;" horiz-adv-x="1232" d="M53 864l4 160h488v-338h174q432 0 432 -330q0 -171 -116.5 -263.5t-315.5 -92.5h-365v879l-149 -5zM545 139h182q99 0 158 56.5t59 158.5q0 94 -62 143.5t-173 49.5h-164v-408z" />
<glyph unicode="&#x44b;" horiz-adv-x="1509" d="M168 1024l203 10v-348h198q188 0 298 -81t110 -249q0 -170 -112.5 -263t-295.5 -93h-389v813q0 46 -3 99t-6 82zM371 139h161q115 0 175.5 54t60.5 151q0 203 -236 203h-161v-408zM1126 1024l203 10v-844q0 -42 2.5 -89.5t4.5 -74.5l3 -26h-200v813q0 46 -3.5 99t-6.5 82 z" />
<glyph unicode="&#x44c;" horiz-adv-x="1058" d="M168 1024l203 10v-348h198q188 0 298 -81t110 -249q0 -170 -112.5 -263t-295.5 -93h-389v813q0 46 -3 99t-6 82zM371 139h164q115 0 175 54t60 151q0 203 -235 203h-164v-408z" />
<glyph unicode="&#x44d;" horiz-adv-x="1003" d="M90 1001q32 4 92 16.5t114 19.5t112 7q213 0 347 -131t134 -374q0 -258 -137 -408.5t-379 -150.5q-69 0 -137 14t-101 28l-33 15v153q11 -5 32.5 -13t90 -21t140.5 -13q142 0 228.5 78.5t98.5 222.5l-434 -18v170l434 -14q-14 133 -92 217t-205 84q-58 0 -152.5 -20.5 t-119.5 -24.5z" />
<glyph unicode="&#x44e;" horiz-adv-x="1683" d="M168 1024l203 10v-438h235q31 216 162 337.5t342 121.5q216 0 337.5 -137t121.5 -359q0 -273 -135.5 -430.5t-376.5 -157.5q-210 0 -331.5 130.5t-127.5 342.5h-227v-254q0 -42 2.5 -89.5t4.5 -74.5l3 -26h-201v813q0 46 -3 99t-6 82zM793 557q0 -434 307 -434 q125 0 199.5 100.5t74.5 245.5q0 434 -307 434q-125 0 -199.5 -100.5t-74.5 -245.5z" />
<glyph unicode="&#x44f;" horiz-adv-x="1105" d="M90 0l246 395q-92 33 -149.5 105t-57.5 178q0 162 116.5 254t311.5 92h369v-834q0 -42 2.5 -89.5t5.5 -74.5l2 -26h-201v354h-221l-201 -354h-223zM332 696q0 -91 60.5 -145.5t170.5 -54.5h172v378h-186q-97 0 -157 -46.5t-60 -131.5z" />
<glyph unicode="&#x451;" horiz-adv-x="1132" d="M115 475q0 268 137 418.5t356 150.5q157 0 258.5 -72.5t138 -192t15.5 -273.5h-711q19 -363 365 -363q63 0 134 14t110 28l40 14v-150q-5 -3 -15.5 -7.5t-44.5 -16.5t-71.5 -21t-96 -16.5t-118.5 -7.5q-236 0 -366.5 134t-130.5 361zM276 1366q0 53 37 84t95 31 q55 0 86.5 -30t31.5 -81q0 -56 -35 -88.5t-94 -32.5q-53 0 -87 32.5t-34 84.5zM315 637l510 8q3 113 -52.5 186.5t-172.5 73.5q-115 0 -189.5 -73t-95.5 -195zM686 1366q0 53 36.5 84t94.5 31q55 0 87 -30t32 -81q0 -56 -35 -88.5t-94 -32.5q-53 0 -87 32.5t-34 84.5z" />
<glyph unicode="&#x452;" horiz-adv-x="1216" d="M-16 1106v149h194v70q0 46 -3 99t-6 82l-3 30l203 10l-2 -291h397v-149h-399v-234q145 50 317 50q84 0 151 -22.5t119.5 -71t81.5 -131t29 -195.5v-322q0 -119 -35 -219q-23 -71 -69 -135.5t-114.5 -136t-82.5 -88.5l-121 112q23 33 72 89t80.5 103.5t48.5 102.5 q20 66 20 172v305q0 273 -270 273q-78 0 -225 -23q2 -35 2 -119v-446q0 -33 2.5 -75.5t4.5 -68.5l3 -26h-201v1106h-194z" />
<glyph unicode="&#x453;" horiz-adv-x="872" d="M168 1024h661l-8 -164q-82 10 -164 10h-286v-700q0 -33 2.5 -75.5t4.5 -68.5l3 -26h-201v813q0 46 -3 99t-6 82zM387 1294l328 371l137 -141l-383 -316z" />
<glyph unicode="&#x454;" horiz-adv-x="997" d="M115 467q0 266 137.5 421.5t351.5 155.5q50 0 100 -7.5t107.5 -19t91.5 -16.5l-33 -163q-18 3 -81 15t-106.5 18t-84.5 6q-138 0 -209.5 -80t-79.5 -219l443 18v-170l-437 18q23 -140 105 -220.5t217 -80.5q64 0 129 14t98 28l33 14v-152q-4 -3 -13 -7.5t-38.5 -16 t-63 -20.5t-86 -16t-108.5 -7q-225 0 -349 135t-124 352z" />
<glyph unicode="&#x455;" horiz-adv-x="919" d="M113 23l16 167q39 -4 149.5 -26.5t176.5 -22.5q198 0 198 123q0 60 -55 96t-190 82q-144 47 -212.5 124.5t-68.5 193.5q0 132 89 208t233 76q79 0 175.5 -19t141.5 -21l-16 -166q-61 4 -152.5 24.5t-155.5 20.5q-71 0 -111 -31.5t-40 -83.5q0 -64 48 -97.5t198 -86.5 q142 -48 211 -119t69 -186q0 -139 -99.5 -219t-273.5 -80q-71 0 -180 19.5t-151 23.5z" />
<glyph unicode="&#x456;" horiz-adv-x="550" d="M150 1366q0 53 36.5 84t94.5 31q55 0 86.5 -30t31.5 -81q0 -56 -35 -88.5t-94 -32.5q-53 0 -86.5 32.5t-33.5 84.5zM168 1024l203 10v-844q0 -42 2.5 -89.5t4.5 -74.5l3 -26h-201v813q0 46 -3 99t-6 82z" />
<glyph unicode="&#x457;" horiz-adv-x="550" d="M-10 1401q0 50 35 79t90 29q52 0 82 -28t30 -76q0 -53 -33.5 -84t-89.5 -31q-50 0 -82 31t-32 80zM168 1024l203 10v-844q0 -42 2.5 -89.5t4.5 -74.5l3 -26h-201v813q0 46 -3 99t-6 82zM301 1401q0 50 35 79t90 29q52 0 82.5 -28t30.5 -76q0 -53 -33.5 -84t-89.5 -31 q-50 0 -82.5 31t-32.5 80z" />
<glyph unicode="&#x458;" horiz-adv-x="548" d="M-25 -436q15 19 46.5 56.5t44 53.5t32 43.5t31.5 52t23 54.5q28 83 28 229v760q0 46 -3 99t-6 82l-3 30l203 10v-981q0 -141 -43 -243q-28 -66 -83.5 -138.5t-164.5 -197.5zM150 1366q0 53 36.5 84t94.5 31q55 0 86.5 -30t31.5 -81q0 -56 -35 -88.5t-94 -32.5 q-53 0 -86.5 32.5t-33.5 84.5z" />
<glyph unicode="&#x459;" horiz-adv-x="1650" d="M35 152q76 21 122 67.5t77 149t44 255.5t17 400h688v-334h178q187 0 297.5 -80.5t110.5 -238.5q0 -90 -34.5 -162t-94 -117t-134.5 -68.5t-159 -23.5h-354v874h-332q-6 -188 -19 -317t-38.5 -234.5t-67 -170t-101 -105.5t-145.5 -59zM983 143h162q101 0 159 56.5 t58 154.5q0 90 -63.5 141.5t-172.5 51.5h-143v-404z" />
<glyph unicode="&#x45a;" horiz-adv-x="1726" d="M168 1024l203 10v-438h499v217q0 46 -3 99t-6 82l-3 30l203 10v-344h178q187 0 297.5 -80.5t110.5 -238.5q0 -90 -34.5 -162t-94 -117t-134.5 -68.5t-159 -23.5h-355v444h-499v-254q0 -42 2.5 -89.5t4.5 -74.5l3 -26h-201v813q0 46 -3 99t-6 82zM1061 143h162 q101 0 159 56.5t58 154.5q0 90 -63.5 141.5t-172.5 51.5h-143v-404z" />
<glyph unicode="&#x45b;" horiz-adv-x="1216" d="M-16 1106v149h194v70q0 46 -3 99t-6 82l-3 30l203 10l-2 -291h397v-149h-399v-234q145 50 317 50q84 0 151 -22.5t119.5 -71t81.5 -131t29 -195.5v-332q0 -41 2.5 -83.5t4.5 -64.5l3 -22h-211v485q0 273 -270 273q-78 0 -225 -23q2 -35 2 -119v-446q0 -33 2.5 -75.5 t4.5 -68.5l3 -26h-201v1106h-194z" />
<glyph unicode="&#x45c;" horiz-adv-x="1075" d="M168 1024l203 10v-446h104l150 200q54 73 93 132t52 82l12 22h197q-52 -103 -195 -283l-166 -209l297 -378q25 -33 58.5 -71.5t54.5 -60.5l21 -22l-226 -10l-356 461h-96v-261q0 -42 2.5 -89.5t4.5 -74.5l3 -26h-201v813q0 46 -3 99t-6 82zM438 1298l328 371l137 -141 l-383 -316z" />
<glyph unicode="&#x45e;" horiz-adv-x="1015" d="M37 1024l219 10l199 -602q18 -56 35 -121t24 -102l8 -37h8q27 134 78 279l70 202q50 145 69.5 217.5t28.5 153.5h180q-11 -140 -118 -414l-246 -628q-59 -152 -99.5 -277.5t-51.5 -174.5l-11 -50l-188 8q2 16 9.5 48.5t48 152.5t103.5 264l17 39l-297 821 q-20 56 -41.5 108.5t-33.5 77.5zM135 1403l111 139q39 -35 61 -53t57 -40.5t71 -32t77 -9.5q75 0 133 33.5t133 101.5l111 -139q-63 -61 -158 -107.5t-219 -46.5q-218 0 -377 154z" />
<glyph unicode="&#x45f;" horiz-adv-x="1214" d="M168 1024l203 10v-884h473v663q0 46 -3 99t-7 82l-3 30l203 10v-864q0 -33 2.5 -75.5t5.5 -68.5l2 -26h-342v-162q0 -33 3 -75.5t5 -68.5l3 -26l-181 -10l-14 342h-338v813q0 46 -3 99t-6 82z" />
<glyph unicode="&#x490;" horiz-adv-x="1060" d="M199 1434h653l31 292h141l-10 -460l-602 18v-1094q0 -42 2.5 -89.5t5.5 -74.5l2 -26h-211v1225q0 46 -3 98.5t-6 81.5z" />
<glyph unicode="&#x491;" horiz-adv-x="872" d="M168 1024h491l11 82q4 44 6.5 92t3.5 74v26h162l-21 -444l-450 10v-694q0 -33 2.5 -75.5t4.5 -68.5l3 -26h-201v813q0 46 -3 99t-6 82z" />
<glyph unicode="&#x2000;" horiz-adv-x="995" />
<glyph unicode="&#x2001;" horiz-adv-x="1991" />
<glyph unicode="&#x2002;" horiz-adv-x="995" />
<glyph unicode="&#x2003;" horiz-adv-x="1991" />
<glyph unicode="&#x2004;" horiz-adv-x="663" />
<glyph unicode="&#x2005;" horiz-adv-x="497" />
<glyph unicode="&#x2006;" horiz-adv-x="331" />
<glyph unicode="&#x2007;" horiz-adv-x="331" />
<glyph unicode="&#x2008;" horiz-adv-x="248" />
<glyph unicode="&#x2009;" horiz-adv-x="398" />
<glyph unicode="&#x200a;" horiz-adv-x="110" />
<glyph unicode="&#x2010;" d="M156 516v141l596 21v-141z" />
<glyph unicode="&#x2011;" d="M156 516v141l596 21v-141z" />
<glyph unicode="&#x2012;" d="M156 516v141l596 21v-141z" />
<glyph unicode="&#x2013;" horiz-adv-x="1355" d="M154 530v152h1046v-152h-1046z" />
<glyph unicode="&#x2014;" horiz-adv-x="1732" d="M158 537v151h1415v-151h-1415z" />
<glyph unicode="&#x2018;" horiz-adv-x="505" d="M113 1034q0 129 51 247.5t147 201.5l82 -68q-130 -120 -141 -291q57 2 97 -30.5t40 -94.5q0 -59 -38 -93t-97 -34q-69 0 -105 41.5t-36 120.5z" />
<glyph unicode="&#x2019;" horiz-adv-x="499" d="M119 920q130 120 141 290q-57 -2 -97 30.5t-40 94.5q0 59 38 93t97 34q69 0 105 -41.5t36 -120.5q0 -129 -51 -247t-147 -201z" />
<glyph unicode="&#x201a;" horiz-adv-x="536" d="M125 -317q130 120 141 290q-57 -2 -97 30.5t-40 94.5q0 59 38 93t97 34q69 0 105.5 -41.5t36.5 -120.5q0 -129 -51.5 -247t-147.5 -201z" />
<glyph unicode="&#x201c;" horiz-adv-x="923" d="M113 1034q0 129 51 247.5t147 201.5l82 -68q-130 -120 -141 -291q57 2 97 -30.5t40 -94.5q0 -59 -38 -93t-97 -34q-69 0 -105 41.5t-36 120.5zM530 1034q0 129 51.5 247.5t147.5 201.5l82 -68q-130 -120 -141 -291q57 2 97 -30.5t40 -94.5q0 -59 -38 -93t-97 -34 q-69 0 -105.5 41.5t-36.5 120.5z" />
<glyph unicode="&#x201d;" horiz-adv-x="917" d="M119 920q130 120 141 290q-57 -2 -97 30.5t-40 94.5q0 59 38 93t97 34q69 0 105 -41.5t36 -120.5q0 -129 -51 -247t-147 -201zM537 920q130 120 141 290q-57 -2 -97 30.5t-40 94.5q0 59 38 93t97 34q69 0 105 -41.5t36 -120.5q0 -129 -51.5 -247t-147.5 -201z" />
<glyph unicode="&#x201e;" horiz-adv-x="954" d="M125 -317q130 120 141 290q-57 -2 -97 30.5t-40 94.5q0 59 38 93t97 34q69 0 105.5 -41.5t36.5 -120.5q0 -129 -51.5 -247t-147.5 -201zM543 -317q130 120 141 290q-57 -2 -97 30.5t-40 94.5q0 59 38 93t97 34q69 0 105 -41.5t36 -120.5q0 -129 -51 -247t-147 -201z" />
<glyph unicode="&#x2022;" horiz-adv-x="579" d="M139 618q0 63 38.5 102.5t113.5 39.5q71 0 110 -45t39 -101q0 -67 -42 -107t-119 -40q-70 0 -105 45t-35 106z" />
<glyph unicode="&#x2026;" horiz-adv-x="1579" d="M129 98q0 59 40 93t105 34q61 0 96.5 -33t35.5 -90q0 -62 -39.5 -97.5t-104.5 -35.5q-59 0 -96 35.5t-37 93.5zM649 98q0 59 40 93t106 34q61 0 96 -33t35 -90q0 -62 -39.5 -97.5t-104.5 -35.5q-59 0 -96 35.5t-37 93.5zM1171 98q0 59 40 93t106 34q61 0 96 -33t35 -90 q0 -62 -39 -97.5t-104 -35.5q-59 0 -96.5 35.5t-37.5 93.5z" />
<glyph unicode="&#x202f;" horiz-adv-x="398" />
<glyph unicode="&#x2039;" horiz-adv-x="724" d="M59 492v59l467 491l107 -102l-408 -420l402 -411l-101 -109z" />
<glyph unicode="&#x203a;" horiz-adv-x="724" d="M92 940l107 102l467 -491v-59l-467 -492l-101 109l402 411z" />
<glyph unicode="&#x205f;" horiz-adv-x="497" />
<glyph unicode="&#x20ac;" horiz-adv-x="1335" d="M111 463v151h196q-2 18 -2 60q0 70 6 137h-200v152h229q61 231 213 364t365 133q76 0 176.5 -19t124.5 -22l-29 -159q-20 2 -124.5 21t-180.5 19q-110 0 -203.5 -93t-136.5 -244h555l-27 -152h-557q-2 -23 -2 -66q0 -74 8 -131h516l-24 -151h-459q47 -146 145.5 -233 t245.5 -87q68 0 133.5 10.5t96.5 21.5l32 11v-155q-11 -6 -32 -14.5t-93 -22.5t-151 -14q-228 0 -387.5 130.5t-214.5 352.5h-219z" />
<glyph unicode="&#x2122;" horiz-adv-x="1689" d="M86 1436h592l-6 -127l-207 12v-389l6 -150h-162v539l-215 -12zM723 1436l143 8l197 -287q14 -20 27.5 -43t20.5 -36l7 -13h4q27 47 58 92l180 279l153 8v-512q0 -32 2.5 -69t4.5 -58l2 -21h-162v301q0 37 2 71.5t4 50.5l2 16l-6 2q-25 -49 -76 -121l-168 -248h-20 l-158 217l-74 123l-4 -2q4 -65 4 -143v-136l8 -131h-139v471q0 36 -3 81t-6 72z" />
<glyph unicode="&#x25fc;" horiz-adv-x="1034" d="M0 0v1034h1034v-1034h-1034z" />
</font>
</defs>
</svg>
